<svg xmlns="http://www.w3.org/2000/svg" width="162" height="162"><path fill="#EAEDEF" d="M157.7 56.2H5.2c-2.8 0-5.2 2.3-5.2 5.2v45.9c0 2.8 2.3 5.2 5.2 5.2h152.5c2.8 0 5.2-2.3 5.2-5.2v-46c-.1-2.8-2.4-5.1-5.2-5.1z"/><path fill="#FFF" stroke="#E0E1E2" stroke-width=".846" stroke-miterlimit="10" d="M17 81.4H9.7c-1.5 0-2.7-1.2-2.7-2.7v-7.3c0-1.5 1.2-2.7 2.7-2.7H17c1.5 0 2.7 1.2 2.7 2.7v7.3c-.1 1.5-1.2 2.7-2.7 2.7z"/><path fill="#3AD56F" d="M15.8 67.4c-.9 0-1.7-.8-1.7-1.7 0-.9.8-1.7 1.7-1.7.9 0 1.7.8 1.7 1.7 0 .9-.8 1.7-1.7 1.7z"/><path fill="#161F2B" d="M10.9 67.4c-.9 0-1.7-.8-1.7-1.7 0-.9.8-1.7 1.7-1.7.9 0 1.7.8 1.7 1.7.1.9-.7 1.7-1.7 1.7z"/><path fill="#FFF" stroke="#E0E1E2" stroke-width=".846" stroke-miterlimit="10" d="M34 81.4h-7.3c-1.5 0-2.7-1.2-2.7-2.7v-7.3c0-1.5 1.2-2.7 2.7-2.7H34c1.5 0 2.7 1.2 2.7 2.7v7.3c0 1.5-1.2 2.7-2.7 2.7z"/><path fill="#3AD56F" d="M32.8 67.4c-.9 0-1.7-.8-1.7-1.7 0-.9.8-1.7 1.7-1.7.9 0 1.7.8 1.7 1.7 0 .9-.8 1.7-1.7 1.7z"/><path fill="#161F2B" d="M28 67.4c-.9 0-1.7-.8-1.7-1.7 0-.9.8-1.7 1.7-1.7.9 0 1.7.8 1.7 1.7 0 .9-.8 1.7-1.7 1.7z"/><path fill="#FFF" stroke="#E0E1E2" stroke-width=".846" stroke-miterlimit="10" d="M51 81.4h-7.3c-1.5 0-2.7-1.2-2.7-2.7v-7.3c0-1.5 1.2-2.7 2.7-2.7H51c1.5 0 2.7 1.2 2.7 2.7v7.3c0 1.5-1.2 2.7-2.7 2.7z"/><path fill="#3AD56F" d="M49.8 67.4c-.9 0-1.7-.8-1.7-1.7 0-.9.8-1.7 1.7-1.7.9 0 1.7.8 1.7 1.7 0 .9-.8 1.7-1.7 1.7z"/><path fill="#161F2B" d="M45 67.4c-.9 0-1.7-.8-1.7-1.7 0-.9.8-1.7 1.7-1.7.9 0 1.7.8 1.7 1.7 0 .9-.8 1.7-1.7 1.7z"/><path fill="#FFF" stroke="#E0E1E2" stroke-width=".846" stroke-miterlimit="10" d="M68 81.4h-7.3c-1.5 0-2.7-1.2-2.7-2.7v-7.3c0-1.5 1.2-2.7 2.7-2.7H68c1.5 0 2.7 1.2 2.7 2.7v7.3c0 1.5-1.2 2.7-2.7 2.7z"/><path fill="#3AD56F" d="M66.8 67.4c-.9 0-1.7-.8-1.7-1.7 0-.9.8-1.7 1.7-1.7.9 0 1.7.8 1.7 1.7 0 .9-.7 1.7-1.7 1.7z"/><path fill="#161F2B" d="M62 67.4c-.9 0-1.7-.8-1.7-1.7 0-.9.8-1.7 1.7-1.7.9 0 1.7.8 1.7 1.7 0 .9-.8 1.7-1.7 1.7z"/><path fill="#FFF" stroke="#E0E1E2" stroke-width=".846" stroke-miterlimit="10" d="M85 81.4h-7.3c-1.5 0-2.7-1.2-2.7-2.7v-7.3c0-1.5 1.2-2.7 2.7-2.7H85c1.5 0 2.7 1.2 2.7 2.7v7.3c0 1.5-1.2 2.7-2.7 2.7z"/><path fill="#3AD56F" d="M83.8 67.4c-.9 0-1.7-.8-1.7-1.7 0-.9.8-1.7 1.7-1.7.9 0 1.7.8 1.7 1.7 0 .9-.7 1.7-1.7 1.7z"/><path fill="#161F2B" d="M79 67.4c-.9 0-1.7-.8-1.7-1.7 0-.9.8-1.7 1.7-1.7.9 0 1.7.8 1.7 1.7 0 .9-.8 1.7-1.7 1.7z"/><path fill="#FFF" stroke="#E0E1E2" stroke-width=".846" stroke-miterlimit="10" d="M102.1 81.4h-7.3c-1.5 0-2.7-1.2-2.7-2.7v-7.3c0-1.5 1.2-2.7 2.7-2.7h7.3c1.5 0 2.7 1.2 2.7 2.7v7.3c-.1 1.5-1.3 2.7-2.7 2.7z"/><path fill="#DF484A" d="M100.8 67.4c-.9 0-1.7-.8-1.7-1.7 0-.9.8-1.7 1.7-1.7.9 0 1.7.8 1.7 1.7 0 .9-.7 1.7-1.7 1.7z"/><path fill="#161F2B" d="M96 67.4c-.9 0-1.7-.8-1.7-1.7 0-.9.8-1.7 1.7-1.7.9 0 1.7.8 1.7 1.7 0 .9-.7 1.7-1.7 1.7z"/><path fill="#FFF" stroke="#E0E1E2" stroke-width=".846" stroke-miterlimit="10" d="M119.1 81.4h-7.3c-1.5 0-2.7-1.2-2.7-2.7v-7.3c0-1.5 1.2-2.7 2.7-2.7h7.3c1.5 0 2.7 1.2 2.7 2.7v7.3c-.1 1.5-1.3 2.7-2.7 2.7z"/><path fill="#3AD56F" d="M117.8 67.4c-.9 0-1.7-.8-1.7-1.7 0-.9.8-1.7 1.7-1.7.9 0 1.7.8 1.7 1.7.1.9-.7 1.7-1.7 1.7z"/><path fill="#161F2B" d="M113 67.4c-.9 0-1.7-.8-1.7-1.7 0-.9.8-1.7 1.7-1.7.9 0 1.7.8 1.7 1.7 0 .9-.7 1.7-1.7 1.7z"/><path fill="#FFF" stroke="#E0E1E2" stroke-width=".846" stroke-miterlimit="10" d="M136.1 81.4h-7.3c-1.5 0-2.7-1.2-2.7-2.7v-7.3c0-1.5 1.2-2.7 2.7-2.7h7.3c1.5 0 2.7 1.2 2.7 2.7v7.3c-.1 1.5-1.3 2.7-2.7 2.7z"/><path fill="#3AD56F" d="M134.9 67.4c-.9 0-1.7-.8-1.7-1.7 0-.9.8-1.7 1.7-1.7.9 0 1.7.8 1.7 1.7 0 .9-.8 1.7-1.7 1.7z"/><path fill="#161F2B" d="M130 67.4c-.9 0-1.7-.8-1.7-1.7 0-.9.8-1.7 1.7-1.7.9 0 1.7.8 1.7 1.7 0 .9-.7 1.7-1.7 1.7z"/><path fill="#FFF" stroke="#E0E1E2" stroke-width=".846" stroke-miterlimit="10" d="M153.1 81.4h-7.3c-1.5 0-2.7-1.2-2.7-2.7v-7.3c0-1.5 1.2-2.7 2.7-2.7h7.3c1.5 0 2.7 1.2 2.7 2.7v7.3c0 1.5-1.2 2.7-2.7 2.7z"/><path fill="#3AD56F" d="M151.9 67.4c-.9 0-1.7-.8-1.7-1.7 0-.9.8-1.7 1.7-1.7.9 0 1.7.8 1.7 1.7 0 .9-.8 1.7-1.7 1.7z"/><path fill="#161F2B" d="M147.1 67.4c-.9 0-1.7-.8-1.7-1.7 0-.9.8-1.7 1.7-1.7.9 0 1.7.8 1.7 1.7 0 .9-.8 1.7-1.7 1.7z"/><path fill="#FFF" stroke="#E0E1E2" stroke-width=".846" stroke-miterlimit="10" d="M17 104.6H9.7c-1.5 0-2.7-1.2-2.7-2.7v-7.3c0-1.5 1.2-2.7 2.7-2.7H17c1.5 0 2.7 1.2 2.7 2.7v7.3c-.1 1.5-1.2 2.7-2.7 2.7z"/><path fill="#3AD56F" d="M15.8 90.6c-.9 0-1.7-.8-1.7-1.7 0-.9.8-1.7 1.7-1.7.9 0 1.7.8 1.7 1.7 0 .9-.8 1.7-1.7 1.7z"/><path fill="#161F2B" d="M10.9 90.6c-.9 0-1.7-.8-1.7-1.7 0-.9.8-1.7 1.7-1.7.9 0 1.7.8 1.7 1.7.1.9-.7 1.7-1.7 1.7z"/><path fill="#FFF" stroke="#E0E1E2" stroke-width=".846" stroke-miterlimit="10" d="M34 104.6h-7.3c-1.5 0-2.7-1.2-2.7-2.7v-7.3c0-1.5 1.2-2.7 2.7-2.7H34c1.5 0 2.7 1.2 2.7 2.7v7.3c0 1.5-1.2 2.7-2.7 2.7z"/><path fill="#3AD56F" d="M32.8 90.6c-.9 0-1.7-.8-1.7-1.7 0-.9.8-1.7 1.7-1.7.9 0 1.7.8 1.7 1.7 0 .9-.8 1.7-1.7 1.7z"/><path fill="#161F2B" d="M28 90.6c-.9 0-1.7-.8-1.7-1.7 0-.9.8-1.7 1.7-1.7.9 0 1.7.8 1.7 1.7 0 .9-.8 1.7-1.7 1.7z"/><path fill="#FFF" stroke="#E0E1E2" stroke-width=".846" stroke-miterlimit="10" d="M51 104.6h-7.3c-1.5 0-2.7-1.2-2.7-2.7v-7.3c0-1.5 1.2-2.7 2.7-2.7H51c1.5 0 2.7 1.2 2.7 2.7v7.3c0 1.5-1.2 2.7-2.7 2.7z"/><path fill="#3AD56F" d="M49.8 90.6c-.9 0-1.7-.8-1.7-1.7 0-.9.8-1.7 1.7-1.7.9 0 1.7.8 1.7 1.7 0 .9-.8 1.7-1.7 1.7z"/><path fill="#161F2B" d="M45 90.6c-.9 0-1.7-.8-1.7-1.7 0-.9.8-1.7 1.7-1.7.9 0 1.7.8 1.7 1.7 0 .9-.8 1.7-1.7 1.7z"/><path fill="#FFF" stroke="#E0E1E2" stroke-width=".846" stroke-miterlimit="10" d="M68 104.6h-7.3c-1.5 0-2.7-1.2-2.7-2.7v-7.3c0-1.5 1.2-2.7 2.7-2.7H68c1.5 0 2.7 1.2 2.7 2.7v7.3c0 1.5-1.2 2.7-2.7 2.7z"/><path fill="#3AD56F" d="M66.8 90.6c-.9 0-1.7-.8-1.7-1.7 0-.9.8-1.7 1.7-1.7.9 0 1.7.8 1.7 1.7 0 .9-.7 1.7-1.7 1.7z"/><path fill="#161F2B" d="M62 90.6c-.9 0-1.7-.8-1.7-1.7 0-.9.8-1.7 1.7-1.7.9 0 1.7.8 1.7 1.7 0 .9-.8 1.7-1.7 1.7z"/><path fill="#FFF" stroke="#E0E1E2" stroke-width=".846" stroke-miterlimit="10" d="M85 104.6h-7.3c-1.5 0-2.7-1.2-2.7-2.7v-7.3c0-1.5 1.2-2.7 2.7-2.7H85c1.5 0 2.7 1.2 2.7 2.7v7.3c0 1.5-1.2 2.7-2.7 2.7z"/><path fill="#3AD56F" d="M83.8 90.6c-.9 0-1.7-.8-1.7-1.7 0-.9.8-1.7 1.7-1.7.9 0 1.7.8 1.7 1.7 0 .9-.7 1.7-1.7 1.7z"/><path fill="#161F2B" d="M79 90.6c-.9 0-1.7-.8-1.7-1.7 0-.9.8-1.7 1.7-1.7.9 0 1.7.8 1.7 1.7 0 .9-.8 1.7-1.7 1.7z"/><path fill="#FFF" stroke="#E0E1E2" stroke-width=".846" stroke-miterlimit="10" d="M102.1 104.6h-7.3c-1.5 0-2.7-1.2-2.7-2.7v-7.3c0-1.5 1.2-2.7 2.7-2.7h7.3c1.5 0 2.7 1.2 2.7 2.7v7.3c-.1 1.5-1.3 2.7-2.7 2.7z"/><path fill="#3AD56F" d="M100.8 90.6c-.9 0-1.7-.8-1.7-1.7 0-.9.8-1.7 1.7-1.7.9 0 1.7.8 1.7 1.7 0 .9-.7 1.7-1.7 1.7z"/><path fill="#161F2B" d="M96 90.6c-.9 0-1.7-.8-1.7-1.7 0-.9.8-1.7 1.7-1.7.9 0 1.7.8 1.7 1.7 0 .9-.7 1.7-1.7 1.7z"/><path fill="#FFF" stroke="#E0E1E2" stroke-width=".846" stroke-miterlimit="10" d="M119.1 104.6h-7.3c-1.5 0-2.7-1.2-2.7-2.7v-7.3c0-1.5 1.2-2.7 2.7-2.7h7.3c1.5 0 2.7 1.2 2.7 2.7v7.3c-.1 1.5-1.3 2.7-2.7 2.7z"/><path fill="#3AD56F" d="M117.8 90.6c-.9 0-1.7-.8-1.7-1.7 0-.9.8-1.7 1.7-1.7.9 0 1.7.8 1.7 1.7.1.9-.7 1.7-1.7 1.7z"/><path fill="#161F2B" d="M113 90.6c-.9 0-1.7-.8-1.7-1.7 0-.9.8-1.7 1.7-1.7.9 0 1.7.8 1.7 1.7 0 .9-.7 1.7-1.7 1.7z"/><path fill="#FFF" stroke="#E0E1E2" stroke-width=".846" stroke-miterlimit="10" d="M136.1 104.6h-7.3c-1.5 0-2.7-1.2-2.7-2.7v-7.3c0-1.5 1.2-2.7 2.7-2.7h7.3c1.5 0 2.7 1.2 2.7 2.7v7.3c-.1 1.5-1.3 2.7-2.7 2.7z"/><path fill="#3AD56F" d="M134.9 90.6c-.9 0-1.7-.8-1.7-1.7 0-.9.8-1.7 1.7-1.7.9 0 1.7.8 1.7 1.7 0 .9-.8 1.7-1.7 1.7z"/><path fill="#161F2B" d="M130 90.6c-.9 0-1.7-.8-1.7-1.7 0-.9.8-1.7 1.7-1.7.9 0 1.7.8 1.7 1.7 0 .9-.7 1.7-1.7 1.7z"/><path fill="#FFF" stroke="#E0E1E2" stroke-width=".846" stroke-miterlimit="10" d="M153.1 104.6h-7.3c-1.5 0-2.7-1.2-2.7-2.7v-7.3c0-1.5 1.2-2.7 2.7-2.7h7.3c1.5 0 2.7 1.2 2.7 2.7v7.3c0 1.5-1.2 2.7-2.7 2.7z"/><path fill="#3AD56F" d="M151.9 90.6c-.9 0-1.7-.8-1.7-1.7 0-.9.8-1.7 1.7-1.7.9 0 1.7.8 1.7 1.7 0 .9-.8 1.7-1.7 1.7z"/><path fill="#161F2B" d="M147.1 90.6c-.9 0-1.7-.8-1.7-1.7 0-.9.8-1.7 1.7-1.7.9 0 1.7.8 1.7 1.7 0 .9-.8 1.7-1.7 1.7z"/></svg>