<svg xmlns="http://www.w3.org/2000/svg" width="128.1" height="84"><path fill="#EBFBF1" d="M0 0h84v84H0z"/><circle fill="#3BD671" cx="87.6" cy="33.3" r="20.5"/><g fill="#131A26"><path d="M125.3 54.2c0-.1 0-.1.1-.2 1.1-2.7 1.7-5.6 1.7-8.7 0-12.8-10.4-23.2-23.2-23.2H27.1c-12.8 0-23.2 10.4-23.2 23.2s10.4 23.2 23.2 23.2H104c1 0 2-.1 3-.2 1.5-.4 2.5-2 2.1-3.5-.4-1.6-2-2.5-3.5-2.1-.2.1-.5.2-.7.3-.3 0-.7.1-1 .1H27.1c-9.8 0-17.7-8-17.7-17.7 0-9.8 8-17.7 17.7-17.7H104c9.8 0 17.7 8 17.7 17.7 0 2.3-.5 4.7-1.3 6.8-.2.5-.3 1.1-.2 1.8.4 1.5 1.8 2.4 3.3 2 .8-.2 1.5-.8 1.8-1.5v-.3z"/><path d="M28 49.6c.9 0 1.7.3 2.3.8.6.6.9 1.3.9 2.1 0 .9-.3 1.6-.9 2.1-.6.6-1.4.8-2.3.8-.9 0-1.7-.3-2.3-.8-.6-.5-.9-1.3-.9-2.1s.3-1.6.9-2.1c.6-.5 1.4-.8 2.3-.8zm15.2 1.6c.8 0 1.5-.2 1.9-.7.5-.4.7-1.1.7-1.9h5.5c0 2.1-.7 3.8-2.2 5.1s-3.4 2-5.7 2c-2.7 0-4.9-.9-6.5-2.6-1.6-1.7-2.4-4.1-2.4-7.2v-.2c0-1.9.4-3.6 1.1-5.1s1.7-2.6 3-3.4c1.3-.8 2.9-1.2 4.7-1.2 2.5 0 4.4.7 5.9 2 1.4 1.4 2.2 3.2 2.2 5.5h-5.5c0-1-.2-1.7-.7-2.3-.5-.5-1.1-.8-1.9-.8-1.5 0-2.4 1-2.7 2.9-.1.6-.1 1.5-.1 2.5 0 1.9.2 3.2.7 3.9.2 1.1 1 1.5 2 1.5zm9.8-5.5c0-1.9.4-3.6 1.1-5 .7-1.5 1.8-2.6 3.2-3.4 1.4-.8 3-1.2 4.8-1.2 2.8 0 5.1.9 6.7 2.6 1.6 1.8 2.4 4.1 2.4 7.2v.2c0 2.9-.8 5.3-2.5 7-1.6 1.7-3.9 2.6-6.6 2.6s-4.8-.8-6.5-2.4c-1.6-1.6-2.5-3.8-2.6-6.6v-1zm5.9.4c0 1.7.3 3 .8 3.8.5.8 1.4 1.2 2.4 1.2 2.1 0 3.2-1.6 3.2-4.8v-.6c0-3.4-1.1-5.1-3.2-5.1-2 0-3 1.5-3.2 4.4v1.1zm20.5-9.6l.2 2.2c1.3-1.7 3.1-2.6 5.4-2.6 2.4 0 4 .9 4.8 2.8 1.3-1.9 3.1-2.8 5.6-2.8 3.8 0 5.8 2.3 5.9 7v12.3h-5.9v-12c0-1-.2-1.7-.5-2.1-.3-.4-.9-.7-1.8-.7-1.2 0-2 .5-2.6 1.6v13.1h-5.9V43.5c0-1-.2-1.7-.5-2.1s-.9-.7-1.8-.7c-1.1 0-2 .5-2.6 1.6v13.2h-5.9v-19h5.6z"/></g><path fill="#131A26" d="M124.6 65.6l2.3-1.2c.8-.4 1.2-1.2 1.2-2s-.5-1.6-1.3-1.9l-16-6.7c-.8-.3-1.7-.2-2.4.4-.6.6-.8 1.5-.5 2.3l6.1 16.2c.3.8 1 1.3 1.9 1.4h.2c.8 0 1.5-.4 1.9-1.1l1.3-2.2 2.5 2.7c.4.4 1 .7 1.5.7.6 0 1.1-.2 1.6-.6l2.2-2.2c.8-.8.8-2.2 0-3l-2.5-2.8z"/></svg>