<svg xmlns="http://www.w3.org/2000/svg" width="162" height="162"><path d="M97.3 92.8H59.6c-.7 0-1.3.6-1.3 1.3v11.3c0 .7.6 1.3 1.3 1.3h37.7c.7 0 1.3-.6 1.3-1.3V94.1c-.1-.7-.6-1.3-1.3-1.3zm0-16.4H59.6c-.7 0-1.3.6-1.3 1.3V89c0 .7.6 1.3 1.3 1.3h37.7c.7 0 1.3-.6 1.3-1.3V77.7c-.1-.7-.6-1.3-1.3-1.3zm0-16.4H59.6c-.7 0-1.3.6-1.3 1.3v11.3c0 .7.6 1.3 1.3 1.3h37.7c.7 0 1.3-.6 1.3-1.3V61.3c-.1-.7-.6-1.3-1.3-1.3z" fill="#EAEDEF"/><path fill="#DF484A" d="M96 102.2c-5 0-9-4-9-9s4-9 9-9 9 4 9 9-4 9-9 9z"/><path d="M41.1 92.8H3.4c-.7 0-1.3.6-1.3 1.3v11.3c0 .7.6 1.3 1.3 1.3h37.7c.7 0 1.3-.6 1.3-1.3V94.1c0-.7-.6-1.3-1.3-1.3zm0-16.4H3.4c-.7 0-1.3.6-1.3 1.3V89c0 .7.6 1.3 1.3 1.3h37.7c.7 0 1.3-.6 1.3-1.3V77.7c0-.7-.6-1.3-1.3-1.3zm0-16.4H3.4c-.7 0-1.3.6-1.3 1.3v11.3c0 .7.6 1.3 1.3 1.3h37.7c.7 0 1.3-.6 1.3-1.3V61.3c0-.7-.6-1.3-1.3-1.3z" fill="#EAEDEF"/><path fill="#3AD56F" d="M39.9 102.2c-5 0-9-4-9-9s4-9 9-9 9 4 9 9-4.1 9-9 9z"/><path d="M153 92.8h-37.7c-.7 0-1.3.6-1.3 1.3v11.3c0 .7.6 1.3 1.3 1.3H153c.7 0 1.3-.6 1.3-1.3V94.1c-.1-.7-.6-1.3-1.3-1.3zm0-16.4h-37.7c-.7 0-1.3.6-1.3 1.3V89c0 .7.6 1.3 1.3 1.3H153c.7 0 1.3-.6 1.3-1.3V77.7c-.1-.7-.6-1.3-1.3-1.3zm0-16.4h-37.7c-.7 0-1.3.6-1.3 1.3v11.3c0 .7.6 1.3 1.3 1.3H153c.7 0 1.3-.6 1.3-1.3V61.3c-.1-.7-.6-1.3-1.3-1.3z" fill="#EAEDEF"/><path fill="#3AD56F" d="M151.7 102.2c-5 0-9-4-9-9s4-9 9-9 9 4 9 9-4 9-9 9z"/><path d="M83.5 67.1v1.3h-.8v-3.8h1.5c.3 0 .5.1.7.2.2.1.4.3.5.4.1.2.2.4.2.6 0 .4-.1.7-.4.9-.3.2-.6.3-1 .3h-.7zm0-.6h.7c.2 0 .4 0 .5-.1.1-.1.2-.2.2-.4s-.1-.3-.2-.4c-.1-.1-.3-.2-.4-.2h-.7v1.1zm5.7.1c0 .4-.1.7-.2 1-.1.3-.3.5-.6.6-.2.2-.5.2-.8.2-.3 0-.6-.1-.8-.2-.2-.1-.4-.4-.6-.6-.1-.3-.2-.6-.2-1v-.2c0-.4.1-.7.2-1 .1-.3.3-.5.6-.6.2-.2.5-.2.8-.2.3 0 .6.1.8.2l.6.6c.1.3.2.6.2 1v.2zm-.8-.2c0-.4-.1-.7-.2-.9-.1-.2-.3-.3-.6-.3s-.5.1-.6.3c-.1.2-.2.5-.2.9v.2c0 .4.1.7.2.9.1.2.3.3.6.3s.5-.1.6-.3c.1-.2.2-.5.2-.9v-.2zm2.1.7v1.3h-.8v-3.8h1.5c.3 0 .5.1.7.2.2.1.4.3.5.4.1.2.2.4.2.6 0 .4-.1.7-.4.9-.3.2-.6.3-1 .3h-.7zm0-.6h.7c.2 0 .4 0 .5-.1.1-.1.2-.2.2-.4s-.1-.3-.2-.4c-.1-.1-.3-.2-.4-.2h-.7v1.1zm3.4-.3h.4c.2 0 .3 0 .4-.1.1-.1.1-.2.1-.4s0-.3-.1-.4c-.1-.1-.2-.1-.4-.1-.1 0-.3 0-.4.1-.1.1-.1.2-.1.3h-.7c0-.2.1-.4.2-.5.1-.2.3-.3.4-.4.2-.1.4-.1.6-.1.4 0 .7.1.9.3.2.2.3.5.3.8 0 .2-.1.3-.2.5-.1.1-.2.3-.4.3.2.1.4.2.5.3.1.2.2.3.2.5 0 .3-.1.6-.4.8-.2.2-.6.3-1 .3s-.7-.1-.9-.3c-.2-.1-.3-.4-.3-.7h.7c0 .1.1.3.2.3s.2.1.4.1.3 0 .4-.1c.1-.1.2-.2.2-.4 0-.4-.2-.6-.6-.6h-.4v-.5z" fill="#738199"/></svg>