<svg xmlns="http://www.w3.org/2000/svg" width="64" height="64"><circle fill="#3BD671" cx="31.5" cy="29.7" r="13.9"/><path fill="none" stroke="#131A26" stroke-width="2.751" stroke-linecap="round" stroke-linejoin="round" stroke-miterlimit="10" d="M44.2 44.3C60 28.6 64 12.7 59.8 8.5c-3.7-3.7-8.2-10.1-14.9-1.7s-3.4 10.7.4 14.6c2.7 2.6-2.9 9.4-8.7 15.1-5.8 5.8-12.6 11.4-15.2 8.7-3.9-3.9-6.1-7.2-14.6-.4-8.4 6.8-1.9 11.3 1.7 14.9 3.6 3.6 15.8 1.2 29.2-9.5"/><path fill="none" stroke="#131A26" stroke-width="3" stroke-linecap="round" stroke-miterlimit="10" d="M34.7 24.3c-4.7 0-8.6 3.8-8.6 8.6m9.6-27.7C20.4 5.2 8 17.6 8 32.9m26.7-17.5c-9.6 0-17.4 7.8-17.4 17.4"/><path fill="none" stroke="#131A26" stroke-width="2.751" stroke-linecap="round" stroke-linejoin="round" stroke-miterlimit="10" d="M3.9 55.1l15.2-11.9m24.3-23.9L55.3 4.1"/></svg>