<svg baseProfile="tiny" xmlns="http://www.w3.org/2000/svg" width="64" height="64"><path fill-rule="evenodd" fill="#FE4A00" d="M64 30.2v3.6c-.1 0-.1.1-.1.1l-.3 3c-.1.4 0 .4-.4.4H44.9l1.2 1.2 11.8 11.8c.1.1.1.2 0 .3-2 2.8-4.4 5.2-7.2 7.2-.2.1-.3.1-.5 0-4.2-4.3-8.5-8.5-12.7-12.7-.1-.1-.1-.2-.2-.2v18.4c0 .2 0 .3-.2.3-.8.1-1.7.2-2.5.3-.3 0-.6 0-.9.1h-3.6c0-.1-.1-.1-.1-.1l-3-.3c-.3 0-.4-.1-.4-.4v-18c0-.1 0-.2-.1-.3-.1.1-.1.2-.2.2L13.6 57.8c-.2.2-.3.2-.5 0-2.8-2-5.1-4.4-7.2-7.1-.1-.2-.1-.3 0-.4l9-9 3.8-3.8c.1-.1.2-.1.2-.2H.5c-.1 0-.2 0-.2-.2-.1-.8-.2-1.7-.3-2.5 0-.3 0-.6-.1-.8v-3.2c.1-.1.1-.2.1-.2.1-1.1.2-2.3.3-3.4 0-.3.1-.3.4-.3H19c-.1-.2-.2-.3-.4-.4-4.2-4.2-8.4-8.4-12.7-12.6-.1-.1-.1-.2 0-.3 2-2.8 4.4-5.2 7.2-7.2.2-.1.3-.1.4 0L26.3 19c.1.1.1.2.2.2V.8c0-.2 0-.3.2-.3.8-.1 1.7-.2 2.5-.3.3 0 .6 0 .9-.1h3.5c0 .1.1 0 .1.1 1 .1 2.1.2 3.1.3.3 0 .3.1.3.4v18.3l.2-.2L50.1 6.2c.2-.2.3-.2.4 0 2.8 2 5.1 4.4 7.1 7.1.1.2.2.3 0 .5L44.9 26.5c-.1.1-.2.1-.2.3H63c.3 0 .3.1.4.3.1.8.2 1.7.3 2.5.2.1.2.4.3.6zm-40 1.6c0 2.5.4 4.6 1.1 6.7.1.2.2.3.3.4 1.7.6 3.4 1 5.1 1.1 2.7.2 5.4-.2 7.9-1.1.2-.1.3-.1.3-.3.5-1.4.8-2.8 1-4.2.4-3 0-5.9-1-8.8-.1-.2-.2-.3-.4-.3-1.5-.5-3-.9-4.5-1-2.9-.3-5.8 0-8.5 1-.2.1-.2.1-.3.3-.6 2-1 4.2-1 6.2z"/></svg>