<svg baseProfile="tiny" xmlns="http://www.w3.org/2000/svg" width="64" height="64"><path d="M13.4 40.4a6.7 6.7 0 11-6.7-6.7h6.7v6.7zm3.4 0a6.7 6.7 0 0113.4 0v16.8a6.7 6.7 0 01-13.4 0V40.4z" fill="#E01E5A"/><path d="M23.6 13.4a6.7 6.7 0 116.7-6.7v6.7h-6.7zm0 3.4a6.7 6.7 0 010 13.4H6.7a6.7 6.7 0 010-13.4h16.9z" fill="#36C5F0"/><path d="M50.6 23.6a6.7 6.7 0 116.7 6.7h-6.7v-6.7zm-3.4 0a6.7 6.7 0 01-13.4 0V6.7a6.7 6.7 0 0113.4 0v16.9z" fill="#2EB67D"/><path d="M40.4 50.6a6.7 6.7 0 11-6.7 6.7v-6.7h6.7zm0-3.4a6.7 6.7 0 010-13.4h16.8a6.7 6.7 0 010 13.4H40.4z" fill="#ECB22E"/></svg>