<svg xmlns="http://www.w3.org/2000/svg" width="437.14" height="437.14" viewBox="37.43 37.43 437.14 437.14"><path fill="#8A9CFE" d="M447.249 82.455V474.57c-55.065-48.661-37.454-32.554-101.418-92.019L350 422.987H109.557c-24.698 0-44.806-20.106-44.806-45.026V82.455c0-24.917 20.107-45.025 44.806-45.025H402.44c24.7 0 44.809 20.108 44.809 45.025z"/><path fill="#FDFDFD" d="M353.481 162.233c-31.475-23.605-61.419-22.95-61.419-22.95l-3.06 3.498c37.157 11.365 54.425 27.758 54.425 27.758-51.921-28.456-112.91-28.46-163.273-6.338-8.088 3.715-12.896 6.338-12.896 6.338s18.142-17.267 57.485-28.632l-2.185-2.624s-29.945-.655-61.419 22.95c0 0-31.474 57.047-31.474 127.426 0 0 18.361 31.692 66.663 33.223 0 0 8.088-9.834 14.645-18.142-27.759-8.307-38.249-25.789-38.249-25.789 3.215 2.248 8.517 5.168 8.961 5.463 36.892 20.662 89.294 27.43 136.388 7.65 7.647-2.842 16.174-6.996 25.135-12.896 0 0-10.929 17.924-39.562 26.01 6.559 8.305 14.427 17.703 14.427 17.703 48.304-1.529 66.881-33.223 66.881-33.223.001-70.378-31.473-127.425-31.473-127.425zm-137.043 107.1c-12.24 0-22.295-10.928-22.295-24.262 0-13.333 9.836-24.261 22.295-24.261 12.458 0 22.513 10.928 22.294 24.261 0 13.334-9.836 24.262-22.294 24.262zm79.778 0c-12.239 0-22.294-10.928-22.294-24.262 0-13.333 9.836-24.261 22.294-24.261 12.459 0 22.295 10.928 22.295 24.261 0 13.334-9.836 24.262-22.295 24.262z"/></svg>