<svg data-name="Layer 1" xmlns="http://www.w3.org/2000/svg" viewBox="0 0 98.78 84.4"><path d="M0 0h84v84H0z" fill="#ebfbf1"/><path d="M37.7 84.4A21.7 21.7 0 1016 62.7a21.71 21.71 0 0021.7 21.7z" fill="#3bd671"/><path d="M69.15 10.87a17.41 17.41 0 00-2.49 21.85L29.38 69.17a3.59 3.59 0 105 5.12l4.24-4.11 7.08 7.22 4.88-4.81-1.27-1.32a4.93 4.93 0 017-6.91l1.27 1.31 4.88-4.81-7-7.22L71.6 37.8a17.55 17.55 0 0021.92-2 18.68 18.68 0 003-3.77 17.46 17.46 0 00-27.37-21.16zm19.52 5.32a10.21 10.21 0 01-.19 14.49 10.24 10.24 0 01-14.54-.1 10.15 10.15 0 01-1.55-12.28 8.75 8.75 0 011.74-2.22 10.28 10.28 0 0114.54.11z" fill="#131a26"/></svg>