<svg xmlns="http://www.w3.org/2000/svg" width="162" height="162"><filter height="160%" id="a"><feGaussianBlur in="SourceAlpha" stdDeviation="3"/><feOffset result="offsetblur"/><feComponentTransfer><feFuncA type="linear" slope=".15"/></feComponentTransfer><feMerge><feMergeNode/><feMergeNode in="SourceGraphic"/></feMerge></filter><path fill="#738199" d="M135.4 65.9v.5c.4-.4.9-.6 1.4-.6.6-.1 1.1.3 1.4.8l.6-.6c.3-.1.6-.2.9-.2 1.1 0 1.6.6 1.6 1.7v3.2h-.8v-3.2c0-.3-.1-.6-.2-.8-.2-.2-.5-.3-.8-.3-.3 0-.6.1-.8.3-.2.2-.3.5-.4.7v3.2h-.8v-3.2c0-.7-.3-1.1-1-1.1-.5 0-.9.2-1.1.7v3.5h-.8v-4.8h.8v.2zm7.3-1.3c0-.1 0-.2.1-.3.1-.1.2-.2.4-.1.1 0 .3 0 .4.1.1.1.1.2.1.3s0 .3-.1.4c-.1.1-.2.1-.4.1-.1 0-.3 0-.4-.1-.1-.2-.1-.3-.1-.4zm.9 6.1h-.8v-4.8h.8v4.8zm2.1-4.8v.6c.3-.5.9-.7 1.4-.7 1 0 1.5.6 1.5 1.7v3.2h-.8v-3.2c0-.3-.1-.6-.2-.8-.2-.2-.5-.3-.7-.2-.3 0-.5.1-.7.2-.2.1-.4.3-.5.6v3.4h-.8v-4.8h.8zm7.2 4.3c-.4.4-.9.6-1.4.6-.4 0-.9-.1-1.2-.4-.3-.4-.4-.9-.4-1.3v-3.2h.8V69c0 .7.3 1.1.9 1.1.5.1 1-.2 1.3-.7v-3.5h.8v4.8h-.8v-.5zm3.2-5.5v1.2h.9v.6h-.9v3c0 .2 0 .3.1.4.1.1.3.2.4.1.1 0 .3 0 .4-.1v.7c-.2.1-.4.1-.6.1-.3 0-.6-.1-.8-.3-.2-.3-.3-.6-.3-1v-3h-.9v-.6h.9v-1.2h.8v.1zm3.9 6.1c-.6 0-1.2-.2-1.6-.6-.4-.5-.6-1.1-.6-1.7v-.2c0-.4.1-.9.3-1.3s.4-.7.8-.9c.3-.2.7-.3 1.1-.3.6 0 1.1.2 1.5.6.4.5.6 1.1.5 1.8v.3h-3.3c0 .4.1.8.4 1.2.3.3.6.5 1 .4.3 0 .5-.1.7-.2.2-.1.4-.3.5-.5l.5.4c-.4.7-1.1 1-1.8 1zm-.1-4.3c-.3 0-.6.1-.8.4-.2.3-.4.6-.4 1h2.4v-.1c0-.4-.1-.7-.3-1-.3-.2-.6-.4-.9-.3zm-29.2 4h-.9v-6l-1.8.7v-.8l2.6-1h.1v7.1z"/><path fill="#EAEDEF" d="M5.8 81.1h150.3c3.2 0 5.8 2.6 5.8 5.8 0 3.2-2.6 5.8-5.8 5.8H5.8C2.6 92.8 0 90.2 0 87s2.6-5.9 5.8-5.9z"/><path fill="#3BD771" d="M5.8 81.1H60v11.7H5.8C2.6 92.8 0 90.2 0 87c0-3.2 2.6-5.8 5.8-5.9z"/><g filter="url(#a)"><circle fill="#FFF" cx="60.1" cy="87" r="7.5"/></g><path d="M2 63.7l2.3 5.8 2.3-5.8h1.2v7.1H7V68l.1-3-2.3 5.8H4l-2.3-5.7.1 3v2.8h-1v-7.1l1.2-.1zm7.2 4.4c0-.5.1-1 .3-1.4.2-.4.5-.7.8-1 .3-.3.8-.3 1.2-.3.7 0 1.3.2 1.7.7.4.5.7 1.2.7 2v.1c0 .5-.1 1-.3 1.4-.2.4-.5.7-.8 1-.3.3-.8.3-1.3.3-.7 0-1.3-.2-1.7-.7-.4-.5-.6-1.2-.6-2.1zm.9.2c0 .6.1 1.1.4 1.4.3.3.6.5 1.1.5s.8-.2 1.1-.5c.3-.3.4-.9.4-1.5s-.1-1-.4-1.4c-.3-.4-.6-.5-1.1-.5-.4 0-.8.2-1.1.5-.3.3-.4.8-.4 1.5zm5.9-2.7v.7c.4-.5.9-.8 1.6-.8 1.1 0 1.7.6 1.7 1.9v3.5h-.9v-3.5c0-.4-.1-.7-.3-.8-.2-.1-.4-.3-.8-.3-.3 0-.6.1-.8.2s-.4.4-.5.6v3.8h-.9v-5.3h.9zm4.6-1.5c0-.1 0-.3.1-.4.1-.1.2-.2.4-.2s.3.1.4.2c.1.1.1.2.1.4s0 .3-.1.4-.2.1-.4.1-.3 0-.4-.1c-.1-.1-.1-.2-.1-.4zm1 6.7h-.9v-5.3h.9v5.3zm2.7-6.5v1.3h1v.7h-1v3.3c0 .2 0 .4.1.5s.2.2.4.2c.1 0 .2 0 .4-.1v.7c-.2.1-.5.1-.7.1-.4 0-.7-.1-.9-.4-.2-.3-.3-.6-.3-1v-3.3h-1v-.7h1v-1.3h1zm1.7 3.8c0-.5.1-1 .3-1.4.2-.4.5-.7.8-1 .3-.3.8-.3 1.2-.3.7 0 1.3.2 1.7.7s.7 1.2.7 2v.1c0 .5-.1 1-.3 1.4-.2.4-.5.7-.8 1-.3.3-.8.3-1.3.3-.7 0-1.3-.2-1.7-.7S26 69 26 68.1zm.9.2c0 .6.1 1.1.4 1.4.3.3.6.5 1.1.5s.8-.2 1.1-.5c.3-.3.4-.9.4-1.5s-.1-1-.4-1.4c-.3-.4-.6-.5-1.1-.5-.4 0-.8.2-1.1.5-.3.3-.4.8-.4 1.5zm7.6-1.9h-.4c-.6 0-1 .3-1.2.8V71H32v-5.3h.9v.6c.3-.5.7-.7 1.3-.7.2 0 .3 0 .4.1v.7h-.1zm3.3-2.3c0-.1 0-.3.1-.4.1-.1.2-.2.4-.2s.3.1.4.2c.1.1.1.2.1.4s0 .3-.1.4c-.1.1-.2.1-.4.1s-.3 0-.4-.1-.1-.2-.1-.4zm1 6.7h-.9v-5.3h.9v5.3zm2.3-5.2v.7c.4-.5.9-.8 1.6-.8 1.1 0 1.7.6 1.7 1.9v3.5h-.9v-3.5c0-.4-.1-.7-.3-.8-.2-.1-.4-.3-.8-.3-.3 0-.6.1-.8.2-.2.1-.4.4-.5.6v3.8h-.9v-5.3h.9zm5.9-1.3v1.3h1v.7h-1v3.3c0 .2 0 .4.1.5s.2.2.4.2c.1 0 .2 0 .4-.1v.7c-.2.1-.5.1-.7.1-.4 0-.7-.1-.9-.4-.2-.3-.3-.6-.3-1v-3.3h-1v-.7h1v-1.3h1zm4.2 6.6c-.7 0-1.3-.2-1.7-.7s-.7-1.1-.7-1.9v-.2c0-.5.1-1 .3-1.4.2-.4.5-.7.8-1 .3-.3.7-.3 1.2-.3.7 0 1.2.2 1.6.7.4.5.6 1.1.6 1.9v.4h-3.6c0 .5.2.9.5 1.3s.7.5 1.1.5c.3 0 .6-.1.8-.2.2-.1.4-.3.6-.5l.6.4c-.6.7-1.2 1-2.1 1zm-.1-4.7c-.4 0-.7.1-.9.4-.2.3-.4.6-.5 1.1h2.6v-.1c0-.5-.1-.8-.4-1.1-.3-.3-.4-.3-.8-.3zm5.8.2h-.4c-.6 0-1 .3-1.2.8V71h-.9v-5.3h.9v.6c.3-.5.7-.7 1.3-.7.2 0 .3 0 .4.1v.7h-.1zm2.6 3.2l1.3-4.1h.9l-1.9 5.3h-.7l-1.9-5.3h.9l1.4 4.1zm6.3 1.2c-.1-.1-.1-.3-.1-.6-.4.4-.9.7-1.5.7-.5 0-.9-.1-1.3-.4s-.5-.7-.5-1.1c0-.6.2-1 .6-1.3.4-.3 1-.5 1.8-.5h.9v-.4c0-.3-.1-.6-.3-.8-.2-.2-.5-.3-.8-.3-.3 0-.6.1-.8.2-.2.1-.3.4-.3.6h-.9c0-.3.1-.5.3-.8.2-.3.4-.4.8-.6.4-.2.7-.2 1.1-.2.6 0 1.1.2 1.4.5.3.3.5.7.5 1.3v2.4c0 .5.1.9.2 1.2v.1h-1.1zm-1.5-.7c.3 0 .6-.1.8-.2.2-.1.4-.3.6-.6v-1.1H65c-1.1 0-1.7.3-1.7 1 0 .3.1.5.3.7.2.2.4.2.7.2zm4.7.7h-.9v-7.5h.9v7.5z" fill="#738199"/></svg>