<svg id="Layer_1" data-name="Layer 1" xmlns="http://www.w3.org/2000/svg" viewBox="0 0 572.9 219.7"><defs><style>.cls-1{isolation:isolate}.cls-2{fill:#36d56c}.cls-3{fill:#df484a}.cls-4{fill:#738199}</style></defs><g class="cls-1"><path class="cls-2" d="M381.75-264a11.91 11.91 0 01-1 5.1 8.25 8.25 0 01-2.8 3.3 7.34 7.34 0 01-4.2 1.1 7.84 7.84 0 01-4.1-1.1 7.63 7.63 0 01-2.8-3.3 11 11 0 01-1-4.9v-1.4a11.17 11.17 0 011-5 7.63 7.63 0 012.8-3.3 8.26 8.26 0 014.2-1.2 8.21 8.21 0 014.2 1.1 8.25 8.25 0 012.8 3.3 11.61 11.61 0 011 5.1v1.2zm-2.6-1.2a9.37 9.37 0 00-1.4-5.4 4.59 4.59 0 00-4-1.9 4.65 4.65 0 00-3.9 1.9 9.71 9.71 0 00-1.5 5.2v1.5a9.37 9.37 0 001.4 5.4 4.65 4.65 0 003.9 1.9 4.58 4.58 0 003.9-1.8 8.81 8.81 0 001.4-5.3v-1.5zm18.6 3.29a9.07 9.07 0 01-1.5 5.4 4.87 4.87 0 01-4.2 2.1 5.42 5.42 0 01-4.2-1.7v7.1h-2.5v-20.4h2.3l.1 1.6a5 5 0 014.3-1.9 5 5 0 014.2 2 9.1 9.1 0 011.5 5.6v.2zm-2.6-.3a6.24 6.24 0 00-1.1-3.9 3.3 3.3 0 00-2.9-1.4 3.68 3.68 0 00-3.4 2v7a3.84 3.84 0 003.5 2 3.56 3.56 0 002.9-1.4 7.4 7.4 0 001-4.3zm11.9 7.8a6.63 6.63 0 01-4.9-2 7.54 7.54 0 01-1.9-5.2v-.5a9.35 9.35 0 01.8-3.9 7.54 7.54 0 012.3-2.7 6.39 6.39 0 013.3-1 5.55 5.55 0 014.5 1.9 8.09 8.09 0 011.6 5.4v1h-10a5.2 5.2 0 001.3 3.5 3.87 3.87 0 003.1 1.3 5.56 5.56 0 002.3-.5 5.39 5.39 0 001.6-1.4l1.5 1.2a6.17 6.17 0 01-5.5 2.9zm-.4-13.2a3.63 3.63 0 00-2.6 1.1 5.53 5.53 0 00-1.3 3.1h7.4v-.2a5.1 5.1 0 00-1-3 3 3 0 00-2.5-1z" transform="translate(68.35 275.61)"/></g><g class="cls-1"><path class="cls-2" d="M422.75-267.11a4.87 4.87 0 00-1.2-.1 3.42 3.42 0 00-3.4 2.1v10.4h-2.5v-14.7h2.4v1.7a4 4 0 013.5-2 2.68 2.68 0 011.1.2v2.4z" transform="translate(68.35 275.61)"/></g><g class="cls-1"><path class="cls-2" d="M433.55-254.71a7.54 7.54 0 01-.4-1.5 5.76 5.76 0 01-4.2 1.8 5.58 5.58 0 01-3.6-1.2 4.1 4.1 0 01-1.4-3.1 4.46 4.46 0 011.7-3.6 8.64 8.64 0 014.9-1.3H433v-1.2a2.86 2.86 0 00-.8-2.1 3.2 3.2 0 00-2.3-.8 3.69 3.69 0 00-2.3.7 2.06 2.06 0 00-.9 1.6h-2.5a3.68 3.68 0 01.8-2.1 4.91 4.91 0 012.1-1.6 7.17 7.17 0 012.9-.6 5.68 5.68 0 014 1.3 4.4 4.4 0 011.5 3.5v6.8a9.33 9.33 0 00.5 3.2v.2zm-4.1-1.9a4.28 4.28 0 002.2-.6 3.32 3.32 0 001.5-1.6v-3h-2c-3.1 0-4.6.9-4.6 2.7a2.2 2.2 0 00.8 1.8 3 3 0 002.1.7zm13.6-16.39v3.6h2.7v1.9h-2.7v9.1a1.7 1.7 0 00.4 1.3 1.46 1.46 0 001.2.4 7.38 7.38 0 001.2-.2v2a6.8 6.8 0 01-1.9.3 2.92 2.92 0 01-2.5-1 4.2 4.2 0 01-.9-2.9v-9h-2.7v-1.9h2.7v-3.6zm5.7-.31a1.16 1.16 0 01.4-1 1.25 1.25 0 011.1-.4 1.25 1.25 0 011.1.4 1.28 1.28 0 01.4 1 1.28 1.28 0 01-.4 1 1.37 1.37 0 01-1.1.4 1.25 1.25 0 01-1.1-.4 1.16 1.16 0 01-.4-1zm2.7 18.6H449v-14.7h2.5zm3.4-7.5a10.06 10.06 0 01.8-3.9 7.81 7.81 0 012.4-2.7 5.92 5.92 0 013.5-.9 6.35 6.35 0 014.9 2.1 8.15 8.15 0 011.9 5.5v.2a10.06 10.06 0 01-.8 3.9 5.72 5.72 0 01-2.4 2.7 6.82 6.82 0 01-3.5 1 6 6 0 01-4.8-2.1 8.15 8.15 0 01-1.9-5.5v-.3zm2.5.3a6.67 6.67 0 001.1 3.9 3.69 3.69 0 003 1.5 3.44 3.44 0 003-1.5 6.56 6.56 0 001.1-4.2 6.67 6.67 0 00-1.1-3.9 3.69 3.69 0 00-3-1.5 3.69 3.69 0 00-3 1.5 6.56 6.56 0 00-1.1 4.2zm16.4-7.5l.1 1.8a5.36 5.36 0 014.4-2.1c3.1 0 4.7 1.8 4.7 5.3v9.7h-2.5v-9.7a3.5 3.5 0 00-.7-2.3 2.79 2.79 0 00-2.2-.8 3.14 3.14 0 00-2.1.7 3.91 3.91 0 00-1.4 1.7v10.5h-2.5v-14.8zm22 14.7a7.54 7.54 0 01-.4-1.5 5.76 5.76 0 01-4.2 1.8 5.58 5.58 0 01-3.6-1.2 4.1 4.1 0 01-1.4-3.1 4.46 4.46 0 011.7-3.6 8.64 8.64 0 014.9-1.3h2.4v-1.2a2.86 2.86 0 00-.8-2.1 3.2 3.2 0 00-2.3-.8 3.69 3.69 0 00-2.3.7 2.06 2.06 0 00-.9 1.6h-2.5a3.68 3.68 0 01.8-2.1 4.91 4.91 0 012.1-1.6 7.17 7.17 0 012.9-.6 5.68 5.68 0 014 1.3 4.4 4.4 0 011.5 3.5v6.8a9.33 9.33 0 00.5 3.2v.2zm-4.1-1.9a4.28 4.28 0 002.2-.6 3.32 3.32 0 001.5-1.6v-3h-2c-3.1 0-4.6.9-4.6 2.7a2.2 2.2 0 00.8 1.8 3 3 0 002.1.7zm12.9 1.9h-2.5v-20.9h2.5z" transform="translate(68.35 275.61)"/></g><path class="cls-2" d="M-57-190.11a5.12 5.12 0 01-5.1 5.1h-1.1a5.12 5.12 0 01-5.1-5.1v-30a5.12 5.12 0 015.1-5.1h1.1a5.12 5.12 0 015.1 5.1zm17.75 0a5.12 5.12 0 01-5.1 5.1h-1.1a5.12 5.12 0 01-5.1-5.1v-30a5.12 5.12 0 015.1-5.1h1.1a5.12 5.12 0 015.1 5.1zm17.7 0a5.12 5.12 0 01-5.1 5.1h-1.1a5.12 5.12 0 01-5.1-5.1v-30a5.12 5.12 0 015.1-5.1h1.1a5.12 5.12 0 015.1 5.1zm17.8 0a5.12 5.12 0 01-5.1 5.1h-1.1a5.12 5.12 0 01-5.1-5.1v-30a5.12 5.12 0 015.1-5.1h1.1a5.12 5.12 0 015.1 5.1zm20 0a5.12 5.12 0 01-5.1 5.1h-1.1a5.12 5.12 0 01-5.1-5.1v-30a5.12 5.12 0 015.1-5.1h1.1a5.12 5.12 0 015.1 5.1zm17.75 0a5.12 5.12 0 01-5.1 5.1h-1.1a5.12 5.12 0 01-5.1-5.1v-30a5.12 5.12 0 015.1-5.1h1.1a5.12 5.12 0 015.1 5.1zm17.75 0a5.12 5.12 0 01-5.1 5.1h-1.1a5.12 5.12 0 01-5.1-5.1v-30a5.12 5.12 0 015.1-5.1h1.1a5.12 5.12 0 015.1 5.1zm17.7 0a5.12 5.12 0 01-5.1 5.1h-1.1a5.12 5.12 0 01-5.1-5.1v-30a5.12 5.12 0 015.1-5.1h1.1a5.12 5.12 0 015.1 5.1z" transform="translate(68.35 275.61)"/><path class="cls-3" d="M87.25-190.11a5.12 5.12 0 01-5.1 5.1h-1.1a5.12 5.12 0 01-5.1-5.1v-30a5.12 5.12 0 015.1-5.1h1.1a5.12 5.12 0 015.1 5.1z" transform="translate(68.35 275.61)"/><path class="cls-2" d="M105.05-190.11A5.12 5.12 0 01100-185h-1.1a5.12 5.12 0 01-5.1-5.1v-30a5.12 5.12 0 015.1-5.1h1.1a5.12 5.12 0 015.1 5.1zm17.7 0a5.12 5.12 0 01-5.1 5.1h-1.1a5.12 5.12 0 01-5.1-5.1v-30a5.12 5.12 0 015.1-5.1h1.1a5.12 5.12 0 015.1 5.1zm17.8 0a5.12 5.12 0 01-5.1 5.1h-1.1a5.12 5.12 0 01-5.1-5.1v-30a5.12 5.12 0 015.1-5.1h1.1a5.12 5.12 0 015.1 5.1zm20 0a5.12 5.12 0 01-5.1 5.1h-1.1a5.12 5.12 0 01-5.1-5.1v-30a5.12 5.12 0 015.1-5.1h1.1a5.12 5.12 0 015.1 5.1zm17.7 0a5.12 5.12 0 01-5.1 5.1h-1.1a5.12 5.12 0 01-5.1-5.1v-30a5.12 5.12 0 015.1-5.1h1.1a5.12 5.12 0 015.1 5.1zm17.8 0A5.12 5.12 0 01191-185h-1.1a5.12 5.12 0 01-5.1-5.1v-30a5.12 5.12 0 015.1-5.1h1.1a5.12 5.12 0 015.1 5.1zm17.7 0a5.12 5.12 0 01-5.1 5.1h-1.1a5.12 5.12 0 01-5.1-5.1v-30a5.12 5.12 0 015.1-5.1h1.1a5.12 5.12 0 015.1 5.1z" transform="translate(68.35 275.61)"/><path class="cls-3" d="M231.55-190.11a5.12 5.12 0 01-5.1 5.1h-1.1a5.12 5.12 0 01-5.1-5.1v-30a5.12 5.12 0 015.1-5.1h1.1a5.12 5.12 0 015.1 5.1z" transform="translate(68.35 275.61)"/><path class="cls-2" d="M249.25-190.11a5.12 5.12 0 01-5.1 5.1h-1.1a5.12 5.12 0 01-5.1-5.1v-30a5.12 5.12 0 015.1-5.1h1.1a5.12 5.12 0 015.1 5.1z" transform="translate(68.35 275.61)"/><path class="cls-3" d="M267.05-190.11A5.12 5.12 0 01262-185h-1.1a5.12 5.12 0 01-5.1-5.1v-30a5.12 5.12 0 015.1-5.1h1.1a5.12 5.12 0 015.1 5.1z" transform="translate(68.35 275.61)"/><path class="cls-2" d="M287.05-190.11A5.12 5.12 0 01282-185h-1.1a5.12 5.12 0 01-5.1-5.1v-30a5.12 5.12 0 015.1-5.1h1.1a5.12 5.12 0 015.1 5.1zm17.7 0a5.12 5.12 0 01-5.1 5.1h-1.1a5.12 5.12 0 01-5.1-5.1v-30a5.12 5.12 0 015.1-5.1h1.1a5.12 5.12 0 015.1 5.1zm17.8 0a5.12 5.12 0 01-5.1 5.1h-1.1a5.12 5.12 0 01-5.1-5.1v-30a5.12 5.12 0 015.1-5.1h1.1a5.12 5.12 0 015.1 5.1zm17.8 0a5.12 5.12 0 01-5.1 5.1h-1.1a5.12 5.12 0 01-5.1-5.1v-30a5.12 5.12 0 015.1-5.1h1.1a5.12 5.12 0 015.1 5.1zm19.9 0a5.12 5.12 0 01-5.1 5.1h-1.1a5.12 5.12 0 01-5.1-5.1v-30a5.12 5.12 0 015.1-5.1h1.1a5.12 5.12 0 015.1 5.1zm17.8 0A5.12 5.12 0 01373-185h-1.1a5.12 5.12 0 01-5.1-5.1v-30a5.12 5.12 0 015.1-5.1h1.1a5.12 5.12 0 015.1 5.1zm17.7 0a5.12 5.12 0 01-5.1 5.1h-1.1a5.12 5.12 0 01-5.1-5.1v-30a5.12 5.12 0 015.1-5.1h1.1a5.12 5.12 0 015.1 5.1zm17.8 0a5.12 5.12 0 01-5.1 5.1h-1.1a5.12 5.12 0 01-5.1-5.1v-30a5.12 5.12 0 015.1-5.1h1.1a5.12 5.12 0 015.1 5.1zm17.8 0a5.12 5.12 0 01-5.1 5.1h-1.1a5.12 5.12 0 01-5.1-5.1v-30a5.12 5.12 0 015.1-5.1h1.1a5.12 5.12 0 015.1 5.1zm17.7 0A5.12 5.12 0 01444-185h-1.1a5.12 5.12 0 01-5.1-5.1v-30a5.12 5.12 0 015.1-5.1h1.1a5.12 5.12 0 015.1 5.1zm17.8 0a5.12 5.12 0 01-5.1 5.1h-1.1a5.12 5.12 0 01-5.1-5.1v-30a5.12 5.12 0 015.1-5.1h1.1a5.12 5.12 0 015.1 5.1v30zm20 0a5.12 5.12 0 01-5.1 5.1h-1.1a5.12 5.12 0 01-5.1-5.1v-30a5.12 5.12 0 015.1-5.1h1.1a5.12 5.12 0 015.1 5.1zm17.7 0a5.12 5.12 0 01-5.1 5.1h-1.1a5.12 5.12 0 01-5.1-5.1v-30a5.12 5.12 0 015.1-5.1h1.1a5.12 5.12 0 015.1 5.1zM322.55-61a5.12 5.12 0 01-5.1 5.1h-1.1a5.12 5.12 0 01-5.1-5.1v-30a5.12 5.12 0 015.1-5.1h1.1a5.12 5.12 0 015.1 5.1zm17.8 0a5.12 5.12 0 01-5.1 5.1h-1.1a5.12 5.12 0 01-5.1-5.1v-30a5.12 5.12 0 015.1-5.1h1.1a5.12 5.12 0 015.1 5.1zm19.9 0a5.12 5.12 0 01-5.1 5.1h-1.1A5.12 5.12 0 01349-61v-30a5.12 5.12 0 015.1-5.1h1.1a5.12 5.12 0 015.1 5.1z" transform="translate(68.35 275.61)"/><path class="cls-3" d="M378.05-61a5.12 5.12 0 01-5.1 5.1h-1.1a5.12 5.12 0 01-5.1-5.1v-30a5.12 5.12 0 015.1-5.1H373a5.12 5.12 0 015.1 5.1z" transform="translate(68.35 275.61)"/><path class="cls-2" d="M395.75-61a5.12 5.12 0 01-5.1 5.1h-1.1a5.12 5.12 0 01-5.1-5.1v-30a5.12 5.12 0 015.1-5.1h1.1a5.12 5.12 0 015.1 5.1zm17.8 0a5.12 5.12 0 01-5.1 5.1h-1.1a5.12 5.12 0 01-5.1-5.1v-30a5.12 5.12 0 015.1-5.1h1.1a5.12 5.12 0 015.1 5.1z" transform="translate(68.35 275.61)"/><path class="cls-3" d="M431.35-61a5.12 5.12 0 01-5.1 5.1h-1.1a5.12 5.12 0 01-5.1-5.1v-30a5.12 5.12 0 015.1-5.1h1.1a5.12 5.12 0 015.1 5.1zm17.7 0a5.12 5.12 0 01-5.1 5.1h-1.1a5.12 5.12 0 01-5.1-5.1v-30a5.12 5.12 0 015.1-5.1H444a5.12 5.12 0 015.1 5.1zm17.8 0a5.12 5.12 0 01-5.1 5.1h-1.1a5.12 5.12 0 01-5.1-5.1v-30a5.12 5.12 0 015.1-5.1h1.1a5.12 5.12 0 015.1 5.1v30z" transform="translate(68.35 275.61)"/><path class="cls-2" d="M486.85-61a5.12 5.12 0 01-5.1 5.1h-1.1a5.12 5.12 0 01-5.1-5.1v-30a5.12 5.12 0 015.1-5.1h1.1a5.12 5.12 0 015.1 5.1z" transform="translate(68.35 275.61)"/><path class="cls-3" d="M504.55-61a5.12 5.12 0 01-5.1 5.1h-1.1a5.12 5.12 0 01-5.1-5.1v-30a5.12 5.12 0 015.1-5.1h1.1a5.12 5.12 0 015.1 5.1z" transform="translate(68.35 275.61)"/><g class="cls-1"><path class="cls-4" d="M-51-261.31a6.85 6.85 0 01-2.4 5 8.37 8.37 0 01-5.6 1.8 7.64 7.64 0 01-6-2.6c-1.5-1.7-2.2-4-2.2-7v-1.2a11.17 11.17 0 011-5 8.48 8.48 0 012.9-3.3 7.72 7.72 0 014.3-1.2 8.1 8.1 0 015.5 1.8 7.27 7.27 0 012.4 5.1h-4.1a4.26 4.26 0 00-1.1-2.8 3.77 3.77 0 00-2.8-.9 4.17 4.17 0 00-2.9 1.7 7.9 7.9 0 00-1 4.5v1.5a8.43 8.43 0 001 4.7 3.5 3.5 0 003.1 1.5 3.77 3.77 0 002.8-.9 4.2 4.2 0 001.1-2.7z" transform="translate(68.35 275.61)"/></g><g class="cls-1"><path class="cls-4" d="M-40.35-265.71a7.08 7.08 0 00-1.4-.1c-1.5 0-2.5.5-2.9 1.5v9.6h-3.9v-14.7h3.7l.1 1.8a3.75 3.75 0 013.3-2 5 5 0 011.2.2z" transform="translate(68.35 275.61)"/></g><g class="cls-1"><path class="cls-4" d="M-39.55-262.21a9.35 9.35 0 01.8-3.9 6.71 6.71 0 012.4-2.6 7.51 7.51 0 013.7-.9 6.89 6.89 0 014.9 1.8 6.94 6.94 0 012.1 4.9v1a7.27 7.27 0 01-1.9 5.4 6.42 6.42 0 01-5.1 2 6.77 6.77 0 01-5.1-2 7.52 7.52 0 01-1.9-5.5v-.2zm3.9.3a5.58 5.58 0 00.8 3.2 2.71 2.71 0 002.3 1.1 2.53 2.53 0 002.2-1.1 6.22 6.22 0 00.8-3.5 5.81 5.81 0 00-.8-3.2 2.49 2.49 0 00-2.3-1.1 2.53 2.53 0 00-2.2 1.1 5.68 5.68 0 00-.8 3.5zm16-7.5l.1 1.7a5.31 5.31 0 014.2-2 4.37 4.37 0 013.5 1.4 6.08 6.08 0 011.2 4.1v9.5h-3.9v-9.4a3 3 0 00-.5-1.8 2.44 2.44 0 00-1.8-.6 2.85 2.85 0 00-2.5 1.4v10.4h-4v-14.7zm35.4 5.3a11.61 11.61 0 01-1 5.1 7.67 7.67 0 01-3 3.4 8.31 8.31 0 01-4.4 1.2 8.31 8.31 0 01-4.4-1.2A7.67 7.67 0 010-259a11.48 11.48 0 01-1.1-5v-1a11.61 11.61 0 011.1-5.1 7.67 7.67 0 013-3.4 8.06 8.06 0 014.4-1.2 8.31 8.31 0 014.4 1.2 7.67 7.67 0 013 3.4 11.94 11.94 0 011.1 5.1v.9zm-4.1-.9a8.58 8.58 0 00-1.1-4.7 3.53 3.53 0 00-3.2-1.6 3.64 3.64 0 00-3.2 1.6 8.58 8.58 0 00-1.1 4.7v1a8.82 8.82 0 001.1 4.7 3.61 3.61 0 003.2 1.7 3.64 3.64 0 003.2-1.6 7.79 7.79 0 001.1-4.7zm10.4-4.4l.1 1.7a5.31 5.31 0 014.2-2 4.37 4.37 0 013.5 1.4 6.08 6.08 0 011.2 4.1v9.5h-3.9v-9.4a3 3 0 00-.5-1.8 2.44 2.44 0 00-1.8-.6 2.85 2.85 0 00-2.5 1.4v10.4h-3.9v-14.7zm18.8 15a7.41 7.41 0 01-5.3-2 6.86 6.86 0 01-2-5.3v-.4a8.72 8.72 0 01.9-4 6.36 6.36 0 012.4-2.7 6.87 6.87 0 013.6-.9 5.83 5.83 0 014.7 1.9 7.62 7.62 0 011.7 5.4v1.6h-9.4a3.59 3.59 0 001.1 2.3 3.24 3.24 0 002.4.9 4.06 4.06 0 003.5-1.6l1.9 2.2a5.66 5.66 0 01-2.4 1.9 7.09 7.09 0 01-3.1.7zm-.5-12.1a2.56 2.56 0 00-1.9.8 3.74 3.74 0 00-.9 2.3h5.5v-.3a3 3 0 00-.7-2 2.44 2.44 0 00-2-.8z" transform="translate(68.35 275.61)"/></g><g class="cls-1"><path class="cls-3" d="M355.15-131.81a6.88 6.88 0 01-2.3 4.8 7.74 7.74 0 01-5.2 1.7 6.89 6.89 0 01-5.6-2.5 10.14 10.14 0 01-2.1-6.7v-1.9a10.3 10.3 0 011-4.8 7.35 7.35 0 012.8-3.2 8.21 8.21 0 014.2-1.1 7.22 7.22 0 015.1 1.8 7.25 7.25 0 012.2 4.9h-2.6a5.15 5.15 0 00-1.5-3.4 4.59 4.59 0 00-3.2-1.1 4.58 4.58 0 00-3.9 1.8 8.81 8.81 0 00-1.4 5.3v1.9a8.57 8.57 0 001.3 5.1 4.35 4.35 0 003.8 1.9 4.66 4.66 0 003.3-1 5.68 5.68 0 001.5-3.4h2.6z" transform="translate(68.35 275.61)"/></g><g class="cls-1"><path class="cls-3" d="M365.35-138a4.87 4.87 0 00-1.2-.1 3.42 3.42 0 00-3.4 2.1v10.5h-2.5v-14.7h2.4v1.7a4 4 0 013.5-2 2.68 2.68 0 011.1.2v2.3z" transform="translate(68.35 275.61)"/></g><g class="cls-1"><path class="cls-3" d="M366.75-133a10.06 10.06 0 01.8-3.9 7.81 7.81 0 012.4-2.7 5.92 5.92 0 013.5-.9 6.35 6.35 0 014.9 2.1 8.15 8.15 0 011.9 5.5v.2a10.06 10.06 0 01-.8 3.9 6.08 6.08 0 01-2.3 2.7 6.82 6.82 0 01-3.5 1 6 6 0 01-4.8-2.1 8.15 8.15 0 01-1.9-5.5v-.3zm2.5.3a6.67 6.67 0 001.1 3.9 3.69 3.69 0 003 1.5 3.44 3.44 0 003-1.5 7.23 7.23 0 001.1-4.2 6.67 6.67 0 00-1.1-3.9 3.69 3.69 0 00-3-1.5 3.69 3.69 0 00-3 1.5 6.38 6.38 0 00-1.1 4.19zm16.4-7.51l.1 1.8a5.36 5.36 0 014.4-2.1c3.1 0 4.7 1.8 4.7 5.3v9.7h-2.5v-9.7a3.5 3.5 0 00-.7-2.3 2.79 2.79 0 00-2.2-.8 3.14 3.14 0 00-2.1.7 3.91 3.91 0 00-1.4 1.7v10.4h-2.5v-14.7zm19.9-3.9a1.16 1.16 0 01.4-1 1.25 1.25 0 011.1-.4 1.25 1.25 0 011.1.4 1.28 1.28 0 01.4 1 1.28 1.28 0 01-.4 1 1.37 1.37 0 01-1.1.4 1.25 1.25 0 01-1.1-.4 1.28 1.28 0 01-.4-1zm2.7 18.6h-2.5v-14.7h2.5zm12.6-3.9a1.94 1.94 0 00-.8-1.6 7.25 7.25 0 00-2.7-1 11.58 11.58 0 01-3-1 4.74 4.74 0 01-1.7-1.4 2.85 2.85 0 01-.5-1.9 4 4 0 011.5-3.1 6.05 6.05 0 013.9-1.2 6.11 6.11 0 014.1 1.3 4.07 4.07 0 011.6 3.3h-2.6a2.27 2.27 0 00-.9-1.8 3.23 3.23 0 00-2.2-.7 3.28 3.28 0 00-2.1.6 1.94 1.94 0 00-.8 1.6 1.51 1.51 0 00.7 1.4 9.29 9.29 0 002.6.9 11.58 11.58 0 013 1 4.12 4.12 0 011.7 1.4 3.17 3.17 0 01.6 2 3.76 3.76 0 01-1.6 3.2 6.65 6.65 0 01-4.1 1.2 7.45 7.45 0 01-3.1-.6 5.1 5.1 0 01-2.1-1.7 4.31 4.31 0 01-.8-2.4h2.5a2.61 2.61 0 001 2 3.9 3.9 0 002.5.7 3.92 3.92 0 002.3-.6 2 2 0 001-1.6zm12-3.59a8.09 8.09 0 011.6-5.4 5.12 5.12 0 014.2-2.1 5.1 5.1 0 014.1 1.8v-7.7h2.5v20.9H443l-.1-1.6a5.17 5.17 0 01-4.2 1.8 5.12 5.12 0 01-4.2-2.1 8.57 8.57 0 01-1.6-5.5zm2.6.3a6.25 6.25 0 001 3.9 3.42 3.42 0 002.9 1.4 3.65 3.65 0 003.5-2.1v-6.8a3.75 3.75 0 00-3.5-2.1 3.56 3.56 0 00-2.9 1.4 7.4 7.4 0 00-1 4.29zm13.1-.3a10.06 10.06 0 01.8-3.9 7.81 7.81 0 012.4-2.7 5.92 5.92 0 013.5-.9 6.35 6.35 0 014.9 2.1 8.15 8.15 0 011.9 5.5v.2a10.06 10.06 0 01-.8 3.9 6.08 6.08 0 01-2.3 2.7 6.82 6.82 0 01-3.5 1 6 6 0 01-4.8-2.1 8.15 8.15 0 01-1.9-5.5v-.3zm2.5.3a6.67 6.67 0 001.1 3.9 3.69 3.69 0 003 1.5 3.44 3.44 0 003-1.5 7.23 7.23 0 001.1-4.2 6.67 6.67 0 00-1.1-3.9 3.69 3.69 0 00-3-1.5 3.69 3.69 0 00-3 1.5 6.38 6.38 0 00-1.1 4.19zm27 3.7l2.8-11.2h2.5l-4.3 14.7h-2l-3.6-11.1-3.5 11.1h-2l-4.3-14.7h2.5l2.9 11 3.4-11h2zm10.3-11.21l.1 1.8a5.36 5.36 0 014.4-2.1c3.1 0 4.7 1.8 4.7 5.3v9.7h-2.5v-9.7a3.5 3.5 0 00-.7-2.3 3 3 0 00-2.2-.8 3.14 3.14 0 00-2.1.7 3.91 3.91 0 00-1.4 1.7v10.4h-2.5v-14.7zm13.2 13.4a1.16 1.16 0 01.4-1 1.25 1.25 0 011.1-.4 1.25 1.25 0 011.1.4 1.28 1.28 0 01.4 1 1.16 1.16 0 01-.4 1 1.82 1.82 0 01-1.1.4 1.25 1.25 0 01-1.1-.4 1.78 1.78 0 01-.4-1zm2.6-4.4h-2.3l-.2-14.2h2.6z" transform="translate(68.35 275.61)"/></g><path class="cls-2" d="M-57-61a5.12 5.12 0 01-5.1 5.1h-1.1a5.12 5.12 0 01-5.1-5.1v-30a5.12 5.12 0 015.1-5.1h1.1A5.12 5.12 0 01-57-91zm17.75 0a5.12 5.12 0 01-5.1 5.1h-1.1a5.12 5.12 0 01-5.1-5.1v-30a5.12 5.12 0 015.1-5.1h1.1a5.12 5.12 0 015.1 5.1z" transform="translate(68.35 275.61)"/><path class="cls-3" d="M-21.55-61a5.12 5.12 0 01-5.1 5.1h-1.1a5.12 5.12 0 01-5.1-5.1v-30a5.12 5.12 0 015.1-5.1h1.1a5.12 5.12 0 015.1 5.1z" transform="translate(68.35 275.61)"/><path class="cls-2" d="M-3.75-61a5.12 5.12 0 01-5.1 5.1h-1.1A5.12 5.12 0 01-15-61v-30a5.12 5.12 0 015.1-5.1h1.1A5.12 5.12 0 01-3.75-91zm20 0a5.12 5.12 0 01-5.1 5.1h-1.1A5.12 5.12 0 015-61v-30a5.12 5.12 0 015.1-5.1h1.1a5.12 5.12 0 015.1 5.1zM34-61a5.12 5.12 0 01-5.1 5.1h-1.1a5.12 5.12 0 01-5.1-5.1v-30a5.12 5.12 0 015.1-5.1h1.1A5.12 5.12 0 0134-91zm17.75 0a5.12 5.12 0 01-5.1 5.1h-1.1a5.12 5.12 0 01-5.1-5.1v-30a5.12 5.12 0 015.1-5.1h1.1a5.12 5.12 0 015.1 5.1zm17.7 0a5.12 5.12 0 01-5.1 5.1h-1.1a5.12 5.12 0 01-5.1-5.1v-30a5.12 5.12 0 015.1-5.1h1.1a5.12 5.12 0 015.1 5.1zm17.8 0a5.12 5.12 0 01-5.1 5.1h-1.1A5.12 5.12 0 0176-61v-30a5.12 5.12 0 015.1-5.1h1.1a5.12 5.12 0 015.1 5.1zm17.8 0a5.12 5.12 0 01-5.1 5.1h-1.1a5.12 5.12 0 01-5.1-5.1v-30a5.12 5.12 0 015.1-5.1H100a5.12 5.12 0 015.1 5.1zm17.7 0a5.12 5.12 0 01-5.1 5.1h-1.1a5.12 5.12 0 01-5.1-5.1v-30a5.12 5.12 0 015.1-5.1h1.1a5.12 5.12 0 015.1 5.1zm17.8 0a5.12 5.12 0 01-5.1 5.1h-1.1a5.12 5.12 0 01-5.1-5.1v-30a5.12 5.12 0 015.1-5.1h1.1a5.12 5.12 0 015.1 5.1zm20 0a5.12 5.12 0 01-5.1 5.1h-1.1a5.12 5.12 0 01-5.1-5.1v-30a5.12 5.12 0 015.1-5.1h1.1a5.12 5.12 0 015.1 5.1zm17.7 0a5.12 5.12 0 01-5.1 5.1h-1.1A5.12 5.12 0 01167-61v-30a5.12 5.12 0 015.1-5.1h1.1a5.12 5.12 0 015.1 5.1zm17.8 0a5.12 5.12 0 01-5.1 5.1h-1.1a5.12 5.12 0 01-5.1-5.1v-30a5.12 5.12 0 015.1-5.1H191a5.12 5.12 0 015.1 5.1zm17.7 0a5.12 5.12 0 01-5.1 5.1h-1.1a5.12 5.12 0 01-5.1-5.1v-30a5.12 5.12 0 015.1-5.1h1.1a5.12 5.12 0 015.1 5.1z" transform="translate(68.35 275.61)"/><path class="cls-3" d="M231.55-61a5.12 5.12 0 01-5.1 5.1h-1.1a5.12 5.12 0 01-5.1-5.1v-30a5.12 5.12 0 015.1-5.1h1.1a5.12 5.12 0 015.1 5.1z" transform="translate(68.35 275.61)"/><path class="cls-2" d="M249.25-61a5.12 5.12 0 01-5.1 5.1h-1.1A5.12 5.12 0 01238-61v-30a5.12 5.12 0 015.1-5.1h1.1a5.12 5.12 0 015.1 5.1zm17.8 0a5.12 5.12 0 01-5.1 5.1h-1.1a5.12 5.12 0 01-5.1-5.1v-30a5.12 5.12 0 015.1-5.1H262a5.12 5.12 0 015.1 5.1zm20 0a5.12 5.12 0 01-5.1 5.1h-1.1a5.12 5.12 0 01-5.1-5.1v-30a5.12 5.12 0 015.1-5.1H282a5.12 5.12 0 015.1 5.1zm17.7 0a5.12 5.12 0 01-5.1 5.1h-1.1a5.12 5.12 0 01-5.1-5.1v-30a5.12 5.12 0 015.1-5.1h1.1a5.12 5.12 0 015.1 5.1z" transform="translate(68.35 275.61)"/><g class="cls-1"><path class="cls-4" d="M-51-132.11a6.85 6.85 0 01-2.4 5 8.37 8.37 0 01-5.6 1.8 7.64 7.64 0 01-6-2.6c-1.5-1.7-2.2-4-2.2-7v-1.2a11.17 11.17 0 011-5 7.22 7.22 0 012.9-3.3 8.94 8.94 0 014.3-1.2 8.1 8.1 0 015.5 1.8 7.27 7.27 0 012.4 5.1h-4.1a4.26 4.26 0 00-1.1-2.8 3.77 3.77 0 00-2.8-.9 3.22 3.22 0 00-3 1.5 7.9 7.9 0 00-1 4.5v1.5a8.43 8.43 0 001 4.7 3.5 3.5 0 003.1 1.5 3.77 3.77 0 002.8-.9 4.2 4.2 0 001.1-2.7h4.1z" transform="translate(68.35 275.61)"/></g><g class="cls-1"><path class="cls-4" d="M-40.35-136.61a7.08 7.08 0 00-1.4-.1c-1.5 0-2.5.5-2.9 1.5v9.6h-3.9v-14.7h3.7l.1 1.8a3.75 3.75 0 013.3-2 5 5 0 011.2.2z" transform="translate(68.35 275.61)"/></g><g class="cls-1"><path class="cls-4" d="M-39.55-133a9.35 9.35 0 01.8-3.9 6.71 6.71 0 012.4-2.6 7.51 7.51 0 013.7-.9 6.89 6.89 0 014.9 1.8 6.94 6.94 0 012.1 4.9v1a7.27 7.27 0 01-1.9 5.4 6.42 6.42 0 01-5.1 2 6.77 6.77 0 01-5.1-2 7.52 7.52 0 01-1.9-5.5v-.2zm3.9.2a5.58 5.58 0 00.8 3.2 2.71 2.71 0 002.3 1.1 2.53 2.53 0 002.2-1.1 6.22 6.22 0 00.8-3.5 5.81 5.81 0 00-.8-3.2 2.49 2.49 0 00-2.3-1.1 2.53 2.53 0 00-2.2 1.1 5.87 5.87 0 00-.8 3.49zm16-7.41l.1 1.7a5.31 5.31 0 014.2-2 4.37 4.37 0 013.5 1.4 6.08 6.08 0 011.2 4.1v9.5h-3.9v-9.4a3 3 0 00-.5-1.8 2.44 2.44 0 00-1.8-.6 2.85 2.85 0 00-2.5 1.4v10.4h-4v-14.7z" transform="translate(68.35 275.61)"/></g><g class="cls-1"><path class="cls-4" d="M13.55-142h-6.1v16.5h-4.1V-142h-6v-3.3h16.1v3.3z" transform="translate(68.35 275.61)"/></g><g class="cls-1"><path class="cls-4" d="M27.85-130.91l1.9-9.4h3.8l-3.8 14.8h-3.3l-2.8-9.3-2.8 9.3h-3.2L14-140.21h3.7l1.9 9.3 2.7-9.3h2.8zm7-2.09a9.35 9.35 0 01.8-3.9 6.71 6.71 0 012.4-2.6 7.51 7.51 0 013.7-.9 6.89 6.89 0 014.9 1.8 6.94 6.94 0 012.1 4.9v1a7.27 7.27 0 01-1.9 5.4 6.42 6.42 0 01-5.1 2 6.77 6.77 0 01-5.1-2 7.52 7.52 0 01-1.9-5.5v-.2zm3.9.2a5.58 5.58 0 00.8 3.2 2.71 2.71 0 002.3 1.1 2.53 2.53 0 002.2-1.1 6.22 6.22 0 00.8-3.5 5.81 5.81 0 00-.8-3.2 2.49 2.49 0 00-2.3-1.1 2.53 2.53 0 00-2.2 1.1 6.71 6.71 0 00-.8 3.49z" transform="translate(68.35 275.61)"/></g></svg>