<svg viewBox="0 0 416 134" fill="none" xmlns="http://www.w3.org/2000/svg"><g clip-path="url(#clip0_1_122)"><path d="M43.8 49.8H8.1c-4.5 0-8.1-3.7-8.1-8.2 0-1.3.3-2.6 1-3.8L18.8 4.3c2.1-4 7-5.5 11-3.4 1.4.8 2.6 1.9 3.4 3.4L51 37.9c2.1 4 .6 8.9-3.4 11-1.1.6-2.4.9-3.8.9z" fill="#DF484A"/><path d="M79.983 38.95l-7.312-24h3.875l5.187 18.375h.25l5.125-18.375h3.938l5.062 18.312h.25l5.188-18.312h3.875l-7.313 24h-3.625l-5.25-18.438h-.375l-5.25 18.438h-3.625zm35.75 0l-7.312-24h3.875l5.187 18.375h.25l5.125-18.375h3.938l5.062 18.312h.25l5.188-18.312h3.875l-7.313 24h-3.625l-5.25-18.438h-.375l-5.25 18.438h-3.625zm35.75 0l-7.312-24h3.875l5.187 18.375h.25l5.125-18.375h3.938l5.062 18.312h.25l5.188-18.312h3.875l-7.313 24h-3.625l-5.25-18.438h-.375l-5.25 18.438h-3.625z" fill="#738199"/><path d="M26 35.2c.8 0 1.6.2 2.1.8 1.1 1.1 1.1 2.9 0 4-.6.5-1.4.8-2.1.8-.8.1-1.6-.2-2.2-.8-.5-.5-.9-1.2-.8-2 0-.8.3-1.5.8-2 .6-.6 1.4-.9 2.2-.8zm1.4-2.9h-2.7c-.5 0-.9-.4-.9-.8l-.6-16.6c0-.5.4-.9.8-.9h3.8c.5 0 .9.4.9.8v.1l-.6 16.6c0 .5-.3.8-.7.8z" fill="#fff"/><path d="M10.4 102.8h277.1c5.8 0 10.4 4.7 10.4 10.4v9.5c0 5.8-4.7 10.4-10.4 10.4H10.4c-5.8 0-10.4-4.7-10.4-10.4v-9.5c0-5.7 4.7-10.4 10.4-10.4zm0-40.4h395c5.8 0 10.4 4.7 10.4 10.4v9.5c0 5.8-4.7 10.4-10.4 10.4h-395C4.7 92.7 0 88 0 82.3v-9.5C0 67 4.7 62.4 10.4 62.4z" fill="#EAEDEF"/><path d="M73.037 30.68l101.391-11.67c1.226-.105 2.451.736 2.563 1.892.111 1.157-.78 2.314-2.006 2.419L73.594 34.99c-1.226.105-2.451-.736-2.563-1.892-.223-1.157.78-2.209 2.006-2.419z" fill="#DF484A"/></g><defs><clipPath id="clip0_1_122"><path fill="#fff" d="M0 0h415.9v133.2H0z"/></clipPath></defs></svg>