<svg id="Layer_1" data-name="Layer 1" xmlns="http://www.w3.org/2000/svg" viewBox="0 0 415.92 133.18"><defs><style>.cls-1{fill:#df484a}.cls-3{fill:#eaedef}</style></defs><path class="cls-1" d="M43.78 49.83H8.14A8.13 8.13 0 011 37.88L18.78 4.32a8.14 8.14 0 0114.37 0L51 37.88a8.13 8.13 0 01-7.18 11.95z"/><path d="M26 35.2a3 3 0 012.14.78 2.86 2.86 0 010 4 3 3 0 01-2.14.78 2.93 2.93 0 01-2.17-.76 2.64 2.64 0 01-.83-2 2.67 2.67 0 01.81-2 2.9 2.9 0 012.19-.8zm1.35-2.87h-2.74a.87.87 0 01-.87-.84l-.56-16.63a.86.86 0 01.87-.89h3.81a.85.85 0 01.86.89l-.56 16.63a.86.86 0 01-.86.84z" fill="#fff"/><rect class="cls-3" y="102.83" width="298.03" height="30.35" rx="10.44"/><rect class="cls-3" y="62.37" width="415.92" height="30.35" rx="10.44"/><path d="M72.64 6.63h3.93v13.49h.09a7.34 7.34 0 012.81-2.77 8.09 8.09 0 014-1.11C86.4 16.24 91 18 91 25.48v12.87h-3.89V25.93c0-3.48-1.29-6.43-5-6.43a5.64 5.64 0 00-5.27 3.93 4.67 4.67 0 00-.27 1.88v13h-3.93zM102 10.52v6.21h5.63v3H102v11.65c0 2.68.76 4.2 3 4.2a8.52 8.52 0 002.28-.27l.17 2.95a9.6 9.6 0 01-3.48.54 5.42 5.42 0 01-4.24-1.66c-1.12-1.16-1.52-3.08-1.52-5.62v-11.8H94.8v-3h3.35v-5.17zm14.78 0v6.21h5.63v3h-5.63v11.65c0 2.68.76 4.2 3 4.2a8.58 8.58 0 002.28-.27l.17 2.95a9.64 9.64 0 01-3.48.54 5.41 5.41 0 01-4.24-1.66c-1.12-1.16-1.52-3.08-1.52-5.62v-11.8h-3.35v-3h3.35v-5.17zm10.05 13.27c0-2.77-.09-5-.18-7.06h3.53l.18 3.71h.09a8.49 8.49 0 017.68-4.2c5.23 0 9.16 4.42 9.16 11 0 7.77-4.74 11.61-9.83 11.61a7.57 7.57 0 01-6.65-3.39h-.09V47.2h-3.89zm3.89 5.76a8.8 8.8 0 00.18 1.61 6.06 6.06 0 005.89 4.6c4.16 0 6.57-3.4 6.57-8.35 0-4.34-2.28-8-6.43-8a6.26 6.26 0 00-5.93 4.82 6.24 6.24 0 00-.27 1.61zm21 4.78a10.27 10.27 0 005.18 1.56c2.86 0 4.2-1.43 4.2-3.21s-1.12-2.91-4-4c-3.89-1.38-5.72-3.53-5.72-6.12 0-3.48 2.81-6.34 7.46-6.34a10.69 10.69 0 015.31 1.34l-1 2.86a8.37 8.37 0 00-4.42-1.25c-2.32 0-3.62 1.34-3.62 2.94 0 1.79 1.3 2.6 4.11 3.67 3.75 1.43 5.67 3.3 5.67 6.52 0 3.8-2.94 6.48-8.08 6.48a12.27 12.27 0 01-6.08-1.48z" fill="#738199"/><rect class="cls-1" x="70.83" y="24.83" width="95.88" height="4.18" rx="2.09" transform="rotate(-6.98 118.83 26.914)"/></svg>