<svg data-name="Layer 1" xmlns="http://www.w3.org/2000/svg" viewBox="0 0 99.43 84"><path d="M0 0h84v84H0z" fill="#ebfbf1"/><path d="M72.59 71.31a26.84 26.84 0 10-26.84-26.84 26.84 26.84 0 0026.84 26.84z" fill="#3bd671"/><path d="M69.06 77H48a2.75 2.75 0 01-2.75-2.75v-4.82h-4.72a2.75 2.75 0 01-2.75-2.75V60H28.4a2.75 2.75 0 01-2.75-2.75V13a2.75 2.75 0 012.75-2.75h60.27A2.75 2.75 0 0191.42 13v44.2a2.75 2.75 0 01-2.75 2.8h-9.38v6.69a2.75 2.75 0 01-2.75 2.75h-4.73v4.84A2.75 2.75 0 0169.06 77zm-18.29-5.5h15.54v-4.82a2.75 2.75 0 012.75-2.75h4.73v-6.69a2.75 2.75 0 012.75-2.75h9.38v-38.7H31.15v38.7h9.38a2.75 2.75 0 012.75 2.75v6.69H48a2.75 2.75 0 012.75 2.75z" fill="#131a26"/><path d="M37.24 30.84a2.75 2.75 0 01-2.75-2.75v-7.34a2.75 2.75 0 015.5 0v7.34a2.76 2.76 0 01-2.75 2.75zm8.51 0A2.75 2.75 0 0143 28.09v-7.34a2.75 2.75 0 015.5 0v7.34a2.75 2.75 0 01-2.75 2.75zm8.53 0a2.75 2.75 0 01-2.75-2.75v-7.34a2.75 2.75 0 015.5 0v7.34a2.76 2.76 0 01-2.75 2.75zm8.52 0a2.75 2.75 0 01-2.75-2.75v-7.34a2.75 2.75 0 015.5 0v7.34a2.76 2.76 0 01-2.75 2.75zm8.52 0a2.75 2.75 0 01-2.75-2.75v-7.34a2.75 2.75 0 015.5 0v7.34a2.76 2.76 0 01-2.75 2.75zm8.52 0a2.75 2.75 0 01-2.75-2.75v-7.34a2.75 2.75 0 015.5 0v7.34a2.76 2.76 0 01-2.75 2.75z" fill="#131a26"/></svg>