<svg id="Layer_1" data-name="Layer 1" xmlns="http://www.w3.org/2000/svg" viewBox="0 0 490.12 245.26"><defs><style>.cls-1{fill:#eaedef}.cls-2{fill:#738199}</style></defs><rect class="cls-1" y="34.41" width="193.18" height="56.95" rx="4.95"/><path class="cls-2" d="M4.4 10.79v6.94H2.06V0H8.6a6.57 6.57 0 014.56 1.49 5 5 0 011.65 3.93 5 5 0 01-1.61 4 6.88 6.88 0 01-4.63 1.39zm0-1.91h4.2A4.18 4.18 0 0011.47 8a3.21 3.21 0 001-2.55 3.32 3.32 0 00-1-2.54 4 4 0 00-2.74-1H4.4zM16.68 11a7.74 7.74 0 01.77-3.48 5.66 5.66 0 012.11-2.39 5.79 5.79 0 013.1-.84A5.57 5.57 0 0127 6.17a7.19 7.19 0 011.66 5v.16a7.87 7.87 0 01-.74 3.45 5.6 5.6 0 01-2.1 2.38 5.85 5.85 0 01-3.15.85 5.53 5.53 0 01-4.34-1.86 7.11 7.11 0 01-1.67-4.93zm2.27.27a5.64 5.64 0 001 3.52 3.44 3.44 0 005.45 0 6.19 6.19 0 001-3.77 5.67 5.67 0 00-1-3.51 3.28 3.28 0 00-2.74-1.35A3.22 3.22 0 0020 7.49a6.12 6.12 0 00-1 3.8zm18.92-4.69a6.36 6.36 0 00-1.1-.09 3 3 0 00-3 1.89v9.35H31.5V4.55h2.2v1.53a3.52 3.52 0 013.15-1.77 2.32 2.32 0 011 .17zm5.74-5.22v3.19h2.46V6.3h-2.46v8.18a1.84 1.84 0 00.33 1.19 1.39 1.39 0 001.12.39 5.91 5.91 0 001.07-.14v1.81a6.61 6.61 0 01-1.73.27 2.81 2.81 0 01-2.28-.91 3.92 3.92 0 01-.76-2.59V6.3H39V4.55h2.4V1.36zm14.32 0v3.19h2.46V6.3h-2.46v8.18a1.84 1.84 0 00.33 1.19 1.39 1.39 0 001.12.39 5.91 5.91 0 001.07-.14v1.81a6.61 6.61 0 01-1.73.24 2.79 2.79 0 01-2.27-.91 3.87 3.87 0 01-.77-2.59V6.3h-2.4V4.55h2.4V1.36zm9.4 13.07l3.07-9.88h2.41l-5.29 15.21c-.82 2.2-2.13 3.29-3.91 3.29h-.43l-.84-.16V21h.61a3 3 0 001.78-.46 3.39 3.39 0 001.06-1.7l.5-1.34-4.71-13H64zM86 11.29a8 8 0 01-1.37 4.85A4.42 4.42 0 0180.85 18a4.79 4.79 0 01-3.77-1.52v6.32h-2.26V4.55h2.06L77 6a4.63 4.63 0 013.82-1.71 4.5 4.5 0 013.75 1.81 8 8 0 011.38 5zM83.7 11a5.86 5.86 0 00-1-3.52 3.06 3.06 0 00-2.61-1.29A3.31 3.31 0 0077.08 8v6.29a3.3 3.3 0 003.09 1.81 3 3 0 002.57-1.29A6.35 6.35 0 0083.7 11zm10.58 7a5.74 5.74 0 01-4.36-1.76 6.52 6.52 0 01-1.68-4.7v-.42A7.92 7.92 0 0189 7.59a5.88 5.88 0 012.1-2.41 5.25 5.25 0 012.9-.87A5 5 0 0198 6a7.34 7.34 0 011.42 4.85v.94H90.5a4.7 4.7 0 001.13 3.15 3.58 3.58 0 002.77 1.2 4 4 0 002-.49 5.37 5.37 0 001.45-1.29l1.37 1.07A5.52 5.52 0 0194.28 18zM94 6.16a3 3 0 00-2.29 1 4.86 4.86 0 00-1.14 2.79h6.6v-.18a4.26 4.26 0 00-.93-2.66A2.82 2.82 0 0094 6.16zM40 72.34h-2.35v-8.19h-8.94v8.19h-2.34V54.61h2.34v7.63h8.94v-7.63H40zm16.05-15.82h-5.7v15.82H48V56.52h-5.66v-1.91h13.71zm15.08 0h-5.7v15.82H63.1V56.52h-5.69v-1.91h13.72zm4.96 8.88v6.94h-2.33V54.61h6.54a6.57 6.57 0 014.56 1.49 5 5 0 011.65 3.9 5 5 0 01-1.62 4 6.84 6.84 0 01-4.62 1.39zm0-1.91h4.21a4.25 4.25 0 002.87-.88 3.27 3.27 0 001-2.56 3.37 3.37 0 00-1-2.54 4 4 0 00-2.74-1h-4.34zm18.62.95a11 11 0 01-4.37-2.13A4 4 0 0189 59.2a4.27 4.27 0 011.67-3.46A6.68 6.68 0 0195 54.37a7.27 7.27 0 013.26.7 5.29 5.29 0 012.22 2 5 5 0 01.78 2.72H98.9a3.26 3.26 0 00-1-2.54 4.18 4.18 0 00-2.9-.97 4.22 4.22 0 00-2.7.72 2.54 2.54 0 00-1 2.12 2.28 2.28 0 00.95 1.88 9 9 0 003.13 1.37 14.51 14.51 0 013.46 1.37 5.22 5.22 0 011.85 1.75 4.46 4.46 0 01.6 2.35 4.15 4.15 0 01-1.68 3.45 7.19 7.19 0 01-4.49 1.3 8.42 8.42 0 01-3.41-.7A5.83 5.83 0 0189.26 70a4.68 4.68 0 01-.85-2.77h2.35a3 3 0 001.18 2.54 5 5 0 003.18.93 4.59 4.59 0 002.88-.78 2.45 2.45 0 001-2.06 2.38 2.38 0 00-.91-2 10.4 10.4 0 00-3.38-1.42zm15.29.71a18.89 18.89 0 01.74-5.29 15.16 15.16 0 012.2-4.6 9.33 9.33 0 013-2.93l.46 1.49a9.67 9.67 0 00-2.86 4.18 17.89 17.89 0 00-1.25 6.27v1a18.18 18.18 0 001.71 8.18 9.75 9.75 0 002.46 3.24l-.46 1.38a9.64 9.64 0 01-3.09-3 16.9 16.9 0 01-2.91-9.92zm17.91 1.24h2.46v1.84h-2.46v4.11h-2.26v-4.11h-8.08V66.9l7.94-12.29h2.4zm-7.78 0h5.52v-8.7l-.27.49zm21.79 0h2.46v1.84h-2.46v4.11h-2.27v-4.11h-8.07V66.9l7.94-12.29h2.4zm-7.79 0h5.52v-8.7l-.27.49zm15.56-4.01h1.69a3.72 3.72 0 002.51-.84 2.79 2.79 0 00.91-2.2q0-3.12-3.1-3.12a3.26 3.26 0 00-2.34.83 2.94 2.94 0 00-.87 2.21h-2.25a4.52 4.52 0 011.54-3.5 5.61 5.61 0 013.92-1.39 5.52 5.52 0 013.93 1.33 4.78 4.78 0 011.42 3.69 4 4 0 01-.74 2.24 4.57 4.57 0 01-2 1.62 4.31 4.31 0 012.25 1.53 4.23 4.23 0 01.8 2.62 4.85 4.85 0 01-1.56 3.79 5.85 5.85 0 01-4 1.4 5.93 5.93 0 01-4.06-1.36 4.46 4.46 0 01-1.57-3.56h2.27a2.9 2.9 0 00.91 2.24 3.49 3.49 0 002.45.84 3.41 3.41 0 002.49-.85 3.29 3.29 0 00.87-2.45 3 3 0 00-.95-2.38 4.17 4.17 0 00-2.74-.85h-1.69zm16.16 2.89a18.61 18.61 0 01-.72 5.2 15.2 15.2 0 01-2.18 4.6 9.51 9.51 0 01-3.07 3l-.48-1.38a9.79 9.79 0 003-4.46 19.18 19.18 0 001.16-6.72v-.39a20.39 20.39 0 00-.53-4.75 16 16 0 00-1.5-3.94 9 9 0 00-2.15-2.72l.48-1.38a9.62 9.62 0 013.06 3 15.17 15.17 0 012.18 4.59 19 19 0 01.75 5.35z"/><rect class="cls-1" x="213.18" y="34.41" width="173.67" height="56.95" rx="4.95"/><path class="cls-2" d="M244.78 64.44a11 11 0 01-4.38-2.13 4.06 4.06 0 01-1.4-3.11 4.3 4.3 0 011.67-3.46 6.69 6.69 0 014.36-1.37 7.3 7.3 0 013.26.7 5.32 5.32 0 012.21 2 5 5 0 01.79 2.72H249a3.26 3.26 0 00-1-2.54 4.21 4.21 0 00-2.89-.92 4.27 4.27 0 00-2.7.76 2.57 2.57 0 00-1 2.12 2.31 2.31 0 00.92 1.84 9.23 9.23 0 003.13 1.37 14.17 14.17 0 013.46 1.37 5.22 5.22 0 011.85 1.75 4.47 4.47 0 01.61 2.35 4.16 4.16 0 01-1.69 3.45 7.17 7.17 0 01-4.49 1.3 8.46 8.46 0 01-3.41-.7 5.79 5.79 0 01-2.46-1.94 4.69 4.69 0 01-.86-2.77h2.35a3 3 0 001.18 2.51 5 5 0 003.17.93 4.64 4.64 0 002.84-.75 2.44 2.44 0 001-2.06 2.38 2.38 0 00-.91-2 10.32 10.32 0 00-3.32-1.42zm12.59-9.83l5.8 14.47L269 54.61h3v17.73h-2.34v-6.9l.22-7.45-5.82 14.35h-1.79L256.46 58l.23 7.42v6.9h-2.34V54.61zM288 56.52h-5.7v15.82H280V56.52h-5.69v-1.91H288zm5 8.88v6.94h-2.34V54.61h6.54a6.57 6.57 0 014.56 1.49 5 5 0 011.64 3.9 5 5 0 01-1.61 4 6.87 6.87 0 01-4.62 1.39zm0-1.91h4.2a4.27 4.27 0 002.88-.88 3.27 3.27 0 001-2.56 3.37 3.37 0 00-1-2.54 4 4 0 00-2.74-1H293zm19.12 1.66a18.89 18.89 0 01.74-5.29 15.16 15.16 0 012.2-4.6 9.33 9.33 0 013-2.93l.46 1.49a9.75 9.75 0 00-2.88 4.18 17.89 17.89 0 00-1.25 6.27v1a18.18 18.18 0 001.71 8.16 9.75 9.75 0 002.46 3.24l-.46 1.38a9.64 9.64 0 01-3.09-3 16.9 16.9 0 01-2.89-9.9zm20 7.19H320.5v-1.62l6.14-6.82a14.42 14.42 0 001.88-2.51 4.15 4.15 0 00.52-2 3.18 3.18 0 00-.84-2.28 3 3 0 00-2.24-.89 3.5 3.5 0 00-2.61 1 3.68 3.68 0 00-.94 2.67h-2.25a5.22 5.22 0 011.58-4 5.83 5.83 0 014.26-1.52 5.6 5.6 0 013.91 1.3 4.43 4.43 0 011.43 3.45q0 2.61-3.33 6.23l-4.75 5.15h8.9zm3.42-8.89l.9-8.84h9.09v2.08h-7.17l-.54 4.84a5.73 5.73 0 013-.77 4.93 4.93 0 013.85 1.6 6.28 6.28 0 011.42 4.33 6 6 0 01-1.52 4.31 5.38 5.38 0 01-4.13 1.58 5.61 5.61 0 01-3.84-1.31 5.19 5.19 0 01-1.69-3.6H337a3.59 3.59 0 001.12 2.33 3.37 3.37 0 002.32.78 3 3 0 002.46-1.07 4.47 4.47 0 00.9-3 4.1 4.1 0 00-1-2.86 3.27 3.27 0 00-2.57-1.08 3.72 3.72 0 00-2.32.65l-.6.49zm18.4 1.82a18.61 18.61 0 01-.71 5.2 15.2 15.2 0 01-2.18 4.6 9.61 9.61 0 01-3.07 3l-.48-1.38a9.79 9.79 0 003-4.46 19.64 19.64 0 001.16-6.72v-.39a19.85 19.85 0 00-.54-4.75 16 16 0 00-1.49-3.94 9.12 9.12 0 00-2.15-2.72l.48-1.38a9.62 9.62 0 013.06 3 15.17 15.17 0 012.18 4.59 19.36 19.36 0 01.74 5.35z"/><rect class="cls-1" y="111.36" width="153.7" height="56.95" rx="4.95"/><path class="cls-2" d="M36.15 141.46h-7.44v7.83h-2.34v-17.73h11v1.91h-8.66v6.08h7.44zm16.5-7.99H47v15.82h-2.38v-15.82h-5.68v-1.91h13.71zm4.97 8.88v6.94h-2.34v-17.73h6.54a6.57 6.57 0 014.56 1.49 5.61 5.61 0 010 7.91 6.87 6.87 0 01-4.62 1.39zm0-1.91h4.2a4.27 4.27 0 002.88-.88 3.26 3.26 0 001-2.56 3.37 3.37 0 00-1-2.54 4 4 0 00-2.75-1h-4.33zm19.13 1.66a18.89 18.89 0 01.74-5.29 15.16 15.16 0 012.2-4.6 9.33 9.33 0 013-2.93l.46 1.49a9.76 9.76 0 00-2.92 4.17 18.12 18.12 0 00-1.23 6.27v1a18.18 18.18 0 001.72 8.16 9.75 9.75 0 002.46 3.24l-.46 1.39a9.76 9.76 0 01-3.1-3 17 17 0 01-2.87-9.9zm20 7.19H85.13v-1.62l6.14-6.82a15 15 0 001.88-2.51 4.26 4.26 0 00.52-2 3.18 3.18 0 00-.84-2.28 3 3 0 00-2.24-.89 3.52 3.52 0 00-2.62 1 3.68 3.68 0 00-.93 2.67h-2.25a5.18 5.18 0 011.58-4 5.82 5.82 0 014.22-1.51 5.57 5.57 0 013.9 1.3 4.4 4.4 0 011.44 3.45q0 2.61-3.33 6.23l-4.75 5.15h8.9zm9.79 0h-2.27v-15L99.73 136v-2l6.46-2.42h.35zm12.03-7.07a19 19 0 01-.71 5.2 15.44 15.44 0 01-2.18 4.6 9.53 9.53 0 01-3.08 3l-.47-1.38a9.78 9.78 0 003-4.46 19.41 19.41 0 001.17-6.72v-.39a19.85 19.85 0 00-.54-4.75 16 16 0 00-1.49-3.94 9.28 9.28 0 00-2.15-2.72l.47-1.38a9.54 9.54 0 013.07 3 15.41 15.41 0 012.18 4.59 19.36 19.36 0 01.73 5.35z"/><rect class="cls-1" x="189.31" y="188.31" width="136.37" height="56.95" rx="4.95"/><path class="cls-2" d="M228.72 220.62a6.56 6.56 0 01-2.07 4.34 6.82 6.82 0 01-4.65 1.53 6.22 6.22 0 01-5-2.26 9 9 0 01-1.9-6v-1.73a10.24 10.24 0 01.88-4.35 6.62 6.62 0 012.51-2.88 7 7 0 013.75-1 6.38 6.38 0 014.53 1.58 6.58 6.58 0 012 4.36h-2.35a5.08 5.08 0 00-1.32-3.08 4 4 0 00-2.84-.95 4.15 4.15 0 00-3.51 1.66 7.6 7.6 0 00-1.28 4.72v1.71a7.79 7.79 0 001.21 4.6 3.89 3.89 0 003.37 1.71 4.48 4.48 0 003-.89 4.82 4.82 0 001.38-3.07zm10.98 4.32a4.8 4.8 0 01-3.86 1.55 4.07 4.07 0 01-3.21-1.23 5.26 5.26 0 01-1.12-3.62v-8.57h2.26v8.51q0 3 2.43 3a3.39 3.39 0 003.44-1.93v-9.58h2.25v13.17h-2.15zm13.3-2.19a1.66 1.66 0 00-.69-1.42 6.39 6.39 0 00-2.39-.87 11.12 11.12 0 01-2.72-.88 3.79 3.79 0 01-1.49-1.22 2.91 2.91 0 01-.48-1.68 3.43 3.43 0 011.37-2.74 5.4 5.4 0 013.5-1.12 5.52 5.52 0 013.64 1.16 3.67 3.67 0 011.39 3h-2.26a2 2 0 00-.79-1.6 3 3 0 00-2-.67 3 3 0 00-1.92.54 1.69 1.69 0 00-.69 1.4 1.35 1.35 0 00.64 1.23 7.81 7.81 0 002.33.79 12 12 0 012.74.9 4.08 4.08 0 011.55 1.26 3.1 3.1 0 01.51 1.8 3.38 3.38 0 01-1.42 2.83 5.91 5.91 0 01-3.66 1.07 6.66 6.66 0 01-2.8-.56 4.58 4.58 0 01-1.91-1.57 3.75 3.75 0 01-.69-2.17H247a2.37 2.37 0 00.91 1.79 3.5 3.5 0 002.24.67 3.6 3.6 0 002.05-.52 1.59 1.59 0 00.8-1.42zm8.23-12.87v3.19h2.46v1.74h-2.46V223a1.82 1.82 0 00.33 1.19 1.4 1.4 0 001.12.4 5.36 5.36 0 001.07-.15v1.82a6.67 6.67 0 01-1.73.24 2.81 2.81 0 01-2.28-.92A3.92 3.92 0 01259 223v-8.17h-2.4v-1.74h2.4v-3.19zm4.25 9.65a7.73 7.73 0 01.76-3.48 5.61 5.61 0 012.12-2.39 5.76 5.76 0 013.1-.84 5.54 5.54 0 014.35 1.87 7.14 7.14 0 011.66 4.95v.16a7.84 7.84 0 01-.73 3.45 5.62 5.62 0 01-2.11 2.38 5.81 5.81 0 01-3.15.86 5.52 5.52 0 01-4.34-1.87 7.11 7.11 0 01-1.66-4.93zm2.26.27a5.62 5.62 0 001 3.52 3.44 3.44 0 005.45 0 6.17 6.17 0 001-3.77 5.61 5.61 0 00-1-3.51 3.27 3.27 0 00-2.73-1.35 3.24 3.24 0 00-2.69 1.33 6.07 6.07 0 00-1.03 3.78zm14.68-6.73l.06 1.46a4.85 4.85 0 013.91-1.71 3.77 3.77 0 013.76 2.12 4.93 4.93 0 014.2-2.12q4.33 0 4.41 4.6v8.82h-2.25v-8.69a3 3 0 00-.65-2.11 2.83 2.83 0 00-2.17-.7 3 3 0 00-2.08.74 3.07 3.07 0 00-1 2v8.74h-2.27v-8.63c0-1.92-.93-2.87-2.81-2.87a3 3 0 00-3 1.88v9.62h-2.25v-13.15z"/><rect class="cls-1" x="173.7" y="111.36" width="146.68" height="56.95" rx="4.95"/><path class="cls-2" d="M205.29 141.39a11.14 11.14 0 01-4.38-2.13 4.06 4.06 0 01-1.37-3.11 4.28 4.28 0 011.68-3.46 6.66 6.66 0 014.35-1.37 7.27 7.27 0 013.26.7 5.49 5.49 0 012.22 1.95 5 5 0 01.78 2.72h-2.35a3.26 3.26 0 00-1-2.54 4.18 4.18 0 00-2.89-.92 4.22 4.22 0 00-2.69.76 2.54 2.54 0 00-1 2.12 2.28 2.28 0 00.92 1.84 9 9 0 003.13 1.37 14.24 14.24 0 013.45 1.37 5.26 5.26 0 011.86 1.75 4.46 4.46 0 01.6 2.35 4.14 4.14 0 01-1.68 3.45 7.2 7.2 0 01-4.5 1.3 8.49 8.49 0 01-3.41-.7 5.79 5.79 0 01-2.44-1.92 4.69 4.69 0 01-.86-2.77h2.35a3 3 0 001.19 2.54 5 5 0 003.17.93 4.62 4.62 0 002.84-.75 2.45 2.45 0 001-2.06 2.41 2.41 0 00-.91-2 10.4 10.4 0 00-3.32-1.42zm14.8 0a11 11 0 01-4.38-2.13 4.06 4.06 0 01-1.37-3.11 4.28 4.28 0 011.68-3.46 6.64 6.64 0 014.35-1.37 7.3 7.3 0 013.26.7 5.39 5.39 0 012.21 1.95 5 5 0 01.79 2.72h-2.35a3.23 3.23 0 00-1-2.54 4.17 4.17 0 00-2.88-.92 4.27 4.27 0 00-2.7.76 2.57 2.57 0 00-1 2.12 2.31 2.31 0 00.92 1.84 9.23 9.23 0 003.13 1.37 14.17 14.17 0 013.46 1.37 5.22 5.22 0 011.85 1.75 4.46 4.46 0 01.6 2.35 4.16 4.16 0 01-1.67 3.45 7.22 7.22 0 01-4.5 1.3 8.46 8.46 0 01-3.41-.7 5.79 5.79 0 01-2.44-1.92 4.69 4.69 0 01-.86-2.77h2.35a3 3 0 001.19 2.54 5 5 0 003.17.93 4.62 4.62 0 002.84-.75 2.45 2.45 0 001-2.06 2.39 2.39 0 00-.92-2 10.32 10.32 0 00-3.32-1.42zm23.2 7.9h-2.35v-8.19H232v8.19h-2.34v-17.73H232v7.63h8.94v-7.63h2.35zm9.89-7.19a18.88 18.88 0 01.73-5.29 15.4 15.4 0 012.2-4.6 9.53 9.53 0 013-2.93l.47 1.49a9.68 9.68 0 00-2.92 4.17 18.12 18.12 0 00-1.25 6.27v1a18 18 0 001.72 8.16 9.75 9.75 0 002.46 3.24l-.47 1.38a9.74 9.74 0 01-3.09-3 17 17 0 01-2.85-9.89zm19.99 7.19h-11.61v-1.62l6.13-6.82a14.42 14.42 0 001.88-2.51 4.15 4.15 0 00.52-2 3.18 3.18 0 00-.84-2.28 3 3 0 00-2.24-.89 3.5 3.5 0 00-2.61 1 3.68 3.68 0 00-.93 2.67h-2.26a5.22 5.22 0 011.58-4 5.83 5.83 0 014.22-1.51 5.6 5.6 0 013.91 1.3 4.4 4.4 0 011.44 3.45c0 1.74-1.12 3.82-3.34 6.23l-4.75 5.15h8.9zm14.01 0h-11.62v-1.62l6.14-6.82a15 15 0 001.88-2.51 4.26 4.26 0 00.52-2 3.18 3.18 0 00-.84-2.28 3 3 0 00-2.24-.89 3.54 3.54 0 00-2.62 1 3.68 3.68 0 00-.93 2.67h-2.25a5.18 5.18 0 011.58-4 5.82 5.82 0 014.22-1.51 5.57 5.57 0 013.9 1.3 4.4 4.4 0 011.44 3.45q0 2.61-3.33 6.23l-4.75 5.15h8.9zm7.82-7.07a18.61 18.61 0 01-.72 5.2 15.2 15.2 0 01-2.18 4.6 9.51 9.51 0 01-3.07 3l-.48-1.38a9.79 9.79 0 003-4.46 19.18 19.18 0 001.16-6.72v-.39a20.39 20.39 0 00-.53-4.75 16 16 0 00-1.5-3.94 9 9 0 00-2.15-2.72l.48-1.38a9.62 9.62 0 013.06 3 15.17 15.17 0 012.18 4.59 19.36 19.36 0 01.75 5.35z"/><rect class="cls-1" y="188.31" width="169.58" height="56.95" rx="4.95"/><path class="cls-2" d="M28.88 226.24h-2.34v-17.73h2.34zm7.29-17.73L42 223l5.8-14.47h3v17.73h-2.34v-6.9l.22-7.45-5.82 14.35h-1.79l-5.81-14.32.23 7.42v6.9h-2.34v-17.75zm28.77 13.09h-7.43l-1.67 4.64h-2.41l6.77-17.73h2l6.8 17.73h-2.4zm-6.72-1.91h6l-3-8.29zm15.54-.39v6.94h-2.34v-17.73H78a6.57 6.57 0 014.52 1.49 5 5 0 011.65 3.93 5 5 0 01-1.62 4 6.84 6.84 0 01-4.62 1.39zm0-1.91H78a4.19 4.19 0 002.87-.88 3.24 3.24 0 001-2.56 3.34 3.34 0 00-1-2.54 4 4 0 00-2.74-1h-4.37zm19.13 1.66a18.88 18.88 0 01.73-5.29 15.4 15.4 0 012.2-4.6 9.38 9.38 0 013-2.92l.47 1.48a9.68 9.68 0 00-2.92 4.17 18.12 18.12 0 00-1.25 6.27v1a18 18 0 001.72 8.16 9.75 9.75 0 002.46 3.24l-.45 1.44a9.74 9.74 0 01-3.09-3 17 17 0 01-2.87-9.95zm15.78 7.19h-2.27v-15l-4.54 1.67v-2.05l6.46-2.42h.35zm16.11-5.95h2.46v1.84h-2.46v4.11h-2.26v-4.11h-8.08v-1.33l7.94-12.29h2.4zm-7.78 0h5.52v-8.7l-.27.49zm15.55-4.01h1.69a3.65 3.65 0 002.51-.84 2.8 2.8 0 00.92-2.2q0-3.12-3.11-3.12a3.26 3.26 0 00-2.33.83 2.94 2.94 0 00-.87 2.22h-2.25a4.52 4.52 0 011.54-3.51 5.59 5.59 0 013.91-1.39 5.52 5.52 0 013.93 1.33 4.78 4.78 0 011.43 3.69 3.91 3.91 0 01-.75 2.24 4.57 4.57 0 01-2 1.62 4.4 4.4 0 012.26 1.53 4.29 4.29 0 01.8 2.62 4.85 4.85 0 01-1.56 3.79 5.86 5.86 0 01-4.06 1.4 6 6 0 01-4.06-1.35 4.52 4.52 0 01-1.56-3.57h2.26a2.93 2.93 0 00.91 2.24 4 4 0 004.95 0 3.28 3.28 0 00.86-2.45 3 3 0 00-1-2.38 4.15 4.15 0 00-2.74-.85h-1.69zm16.16 2.89a19.11 19.11 0 01-.71 5.21 15.39 15.39 0 01-2.18 4.59 9.43 9.43 0 01-3.08 3l-.47-1.38a9.78 9.78 0 003-4.46 19.41 19.41 0 001.17-6.72V219a19.85 19.85 0 00-.54-4.75 16 16 0 00-1.49-3.94 9.12 9.12 0 00-2.15-2.72l.47-1.37a9.39 9.39 0 013.07 3 15.41 15.41 0 012.2 4.58 19.36 19.36 0 01.71 5.37z"/><rect class="cls-1" x="340.37" y="111.36" width="149.75" height="56.95" rx="4.95"/><path class="cls-2" d="M366.74 149.29v-17.73h5a8.06 8.06 0 014.09 1 7 7 0 012.75 2.92 9.52 9.52 0 011 4.33V141a9.57 9.57 0 01-1 4.4 6.86 6.86 0 01-2.77 2.9 8.51 8.51 0 01-4.18 1zm2.34-15.82v13.91h2.46a5.36 5.36 0 004.21-1.68 7 7 0 001.5-4.79v-1a7.06 7.06 0 00-1.42-4.7 5.06 5.06 0 00-4-1.7zm27.65 15.82h-2.35l-8.93-13.66v13.66h-2.35v-17.73h2.35l8.95 13.73v-13.73h2.33zm9.37-7.9a11 11 0 01-4.37-2.13 4 4 0 01-1.37-3.11 4.27 4.27 0 011.67-3.46 6.68 6.68 0 014.35-1.37 7.27 7.27 0 013.26.7 5.42 5.42 0 012.22 1.95 5 5 0 01.78 2.72h-2.35a3.26 3.26 0 00-1-2.54 4.18 4.18 0 00-2.89-.92 4.22 4.22 0 00-2.69.76 2.54 2.54 0 00-1 2.12 2.28 2.28 0 00.92 1.84 9 9 0 003.13 1.37 14.51 14.51 0 013.46 1.37 5.22 5.22 0 011.85 1.75 4.46 4.46 0 01.6 2.35 4.14 4.14 0 01-1.68 3.45 7.19 7.19 0 01-4.49 1.3 8.42 8.42 0 01-3.41-.7 5.83 5.83 0 01-2.45-1.92 4.68 4.68 0 01-.85-2.77h2.35a3 3 0 001.18 2.54 5 5 0 003.18.93 4.59 4.59 0 002.83-.75 2.45 2.45 0 001-2.06 2.38 2.38 0 00-.91-2 10.4 10.4 0 00-3.32-1.42zm15.31.71a18.89 18.89 0 01.74-5.29 15.16 15.16 0 012.2-4.6 9.33 9.33 0 013-2.93l.46 1.49a9.67 9.67 0 00-2.91 4.17 17.89 17.89 0 00-1.25 6.27v1a18.18 18.18 0 001.72 8.16 9.75 9.75 0 002.46 3.24l-.46 1.38a9.64 9.64 0 01-3.09-3 16.9 16.9 0 01-2.87-9.89zm20 7.19h-11.62v-1.62l6.14-6.82a15 15 0 001.88-2.51 4.26 4.26 0 00.52-2 3.18 3.18 0 00-.84-2.28 3 3 0 00-2.24-.89 3.54 3.54 0 00-2.62 1 3.68 3.68 0 00-.93 2.67h-2.25a5.22 5.22 0 011.58-4 5.82 5.82 0 014.22-1.51 5.57 5.57 0 013.9 1.3 4.4 4.4 0 011.44 3.45q0 2.61-3.33 6.23l-4.75 5.15h8.9zm5.66-9.96h1.69a3.65 3.65 0 002.51-.84 2.8 2.8 0 00.92-2.2q0-3.12-3.11-3.12a3.26 3.26 0 00-2.33.83 2.94 2.94 0 00-.87 2.21h-2.26a4.53 4.53 0 011.55-3.5 5.59 5.59 0 013.91-1.39 5.52 5.52 0 013.93 1.33 4.78 4.78 0 011.43 3.69 3.91 3.91 0 01-.75 2.24 4.57 4.57 0 01-2 1.62 4.34 4.34 0 012.26 1.53 4.29 4.29 0 01.8 2.62 4.85 4.85 0 01-1.56 3.79 5.86 5.86 0 01-4.06 1.4 6 6 0 01-4.06-1.36 4.48 4.48 0 01-1.56-3.56h2.26a2.9 2.9 0 00.92 2.24 4 4 0 004.94 0 3.28 3.28 0 00.86-2.45 3 3 0 00-.95-2.38 4.15 4.15 0 00-2.74-.85h-1.69zm16.16 2.89a19 19 0 01-.71 5.2 15.44 15.44 0 01-2.18 4.6 9.53 9.53 0 01-3.08 3l-.47-1.38a9.78 9.78 0 003-4.46 19.41 19.41 0 001.17-6.72v-.39a19.85 19.85 0 00-.54-4.75 16 16 0 00-1.49-3.94 9.28 9.28 0 00-2.15-2.72l.47-1.38a9.54 9.54 0 013.07 3 15.41 15.41 0 012.18 4.59 19.36 19.36 0 01.73 5.35z"/></svg>