<svg version="1.1" id="Layer_1" xmlns="http://www.w3.org/2000/svg" x="0" y="0" viewBox="0 0 372.1 270.5" xml:space="preserve"><style>.st2{fill:#3ad56f}.st3{fill:#202a36}.st4{fill:#fff}.st5{fill:#3bd771}.st6{fill:#535a6a}.st9{fill:#738199}</style><path d="M133.7 0h104.7c5.6 0 10.1 4.5 10.1 10.1v250.4c0 5.6-4.5 10.1-10.1 10.1H133.7c-5.6 0-10.1-4.5-10.1-10.1V10.1c0-5.6 4.5-10.1 10.1-10.1z" fill="#131a26"/><circle cx="185.6" cy="99.3" r="36" fill="#1d4a39"/><circle class="st2" cx="185.6" cy="99.3" r="22.9"/><path class="st3" d="M131.5 222.1h109.2c1.5 0 2.6 1.2 2.6 2.6v14.6c0 1.5-1.2 2.6-2.6 2.6H131.5c-1.5 0-2.7-1.2-2.7-2.6v-14.6c0-1.4 1.2-2.6 2.7-2.6z"/><circle class="st2" cx="236.5" cy="228.9" r="3.5"/><path class="st4" d="M167.2 9.9V14c0 .4-.1.8-.3 1.2-.2.3-.5.6-.9.8-.4.2-.9.3-1.3.3-.6 0-1.3-.2-1.8-.6-.4-.4-.7-1-.7-1.6V9.9h1.5V14c0 .7.3 1 .9 1 .3 0 .5-.1.7-.3.2-.2.3-.5.2-.8v-4h1.7zm5.3 3.9c0 .6-.1 1.2-.5 1.7-.3.4-.8.7-1.3.7-.4 0-.8-.2-1.1-.5v2.2h-1.4v-6.4h1.4v.4c.3-.3.7-.5 1.1-.5.5 0 1 .2 1.3.6.3.5.5 1.2.5 1.8zm-1.4 0c0-.8-.2-1.2-.7-1.2-.3 0-.6.1-.7.4v1.8c.1.3.4.4.7.4.5 0 .7-.4.7-1.2v-.2zm3.8-3.4v1.1h.8v1h-.8v2.1c0 .1 0 .3.1.4.1.1.2.1.4.1h.4v1c-.3.1-.5.1-.8.1-.4 0-.8-.1-1.1-.4-.3-.3-.4-.7-.4-1.1v-2.3h-.6v-1h.6v-1.1h1.4zm1.5-.1c0-.2.1-.4.2-.5.2-.1.4-.2.6-.2.2 0 .4.1.6.2.3.2.3.7.1.9l-.1.1c-.2.1-.4.2-.6.2-.2 0-.4-.1-.6-.2-.1-.1-.2-.3-.2-.5zm1.5 5.8h-1.4v-4.6h1.4v4.6zm2.4-4.6v.5c.3-.4.8-.6 1.3-.6s1 .2 1.2.7c.3-.5.8-.7 1.4-.7.9 0 1.4.6 1.4 1.7v3h-1.4v-2.9c0-.2 0-.4-.1-.5-.1-.1-.3-.2-.4-.2-.3 0-.5.1-.6.4v3.2h-1.4v-2.9c0-.2 0-.4-.1-.5-.1-.1-.2-.2-.4-.2-.3 0-.5.1-.6.4v3.2h-1.4v-4.6h1.1zm8.6 4.7c-.6 0-1.3-.2-1.7-.6-.4-.4-.7-1-.7-1.6v-.1c0-.4.1-.9.3-1.2.2-.4.4-.6.8-.8.4-.2.8-.3 1.2-.3.6 0 1.1.2 1.5.6.4.5.6 1.1.6 1.7v.6H188c.1.5.5.9 1 .8.4 0 .8-.2 1.1-.5l.7.8c-.2.3-.5.5-.8.6-.4-.1-.7 0-1.1 0zm-.1-3.7c-.4 0-.7.3-.8.8h1.4v-.1c0-.2-.1-.4-.2-.5-.1-.1-.3-.2-.4-.2zm5.2 1.4h-.8v2.2h-1.5V9.9h2.4c.6 0 1.2.1 1.7.5.4.3.6.9.6 1.4 0 .4-.1.7-.3 1.1-.2.3-.5.5-.8.7l1.3 2.5v.1H195l-1-2.3zm-.8-1.1h1c.2 0 .5-.1.6-.2.3-.3.4-.9 0-1.2-.2-.2-.4-.3-.7-.3h-1v1.7zm4.1 1c0-.4.1-.8.3-1.2.2-.3.4-.6.8-.8.4-.2.8-.3 1.2-.3.6 0 1.2.2 1.6.6.4.5.6 1.1.6 1.8 0 .6-.2 1.2-.6 1.7-.4.4-1 .7-1.6.6-.6 0-1.2-.2-1.6-.6-.4-.4-.6-1-.6-1.6v-.2zm1.4.1c0 .3 0 .7.2.9.1.2.4.3.6.3.5 0 .8-.4.8-1.2v-.1c0-.8-.3-1.2-.8-1.2s-.7.4-.8 1.1v.2zm8.1-.1c0 .6-.1 1.2-.5 1.8-.3.4-.8.6-1.3.6-.4 0-.9-.2-1.1-.6l-.1.5h-1.3V9.6h1.4v2.3c.2-.3.6-.5 1-.5.5 0 1 .2 1.3.6.4.5.6 1.2.6 1.8zm-1.4 0c0-.3 0-.7-.2-.9-.1-.2-.3-.3-.5-.3-.3 0-.5.1-.7.4v1.8c.1.3.4.4.7.4.3 0 .6-.2.6-.5 0-.4.1-.7.1-.9zm2 0c0-.4.1-.8.3-1.2.2-.3.4-.6.8-.8.4-.2.8-.3 1.2-.3.6 0 1.2.2 1.6.6.4.5.6 1.1.6 1.8 0 .6-.2 1.2-.6 1.7-.4.4-1 .7-1.6.6-.6 0-1.2-.2-1.6-.6-.4-.4-.6-1-.6-1.6v-.2zm1.4.1c0 .3 0 .7.2.9.1.2.4.3.6.3.5 0 .8-.4.8-1.2v-.1c0-.8-.3-1.2-.8-1.2s-.7.4-.8 1.1v.2zm5.5-3.5v1.1h.8v1h-.8v2.1c0 .1 0 .3.1.4.1.1.2.1.4.1h.4v1c-.3.1-.5.1-.8.1-.4 0-.8-.1-1.1-.4-.3-.3-.4-.7-.4-1.1v-2.3h-.6v-1h.6v-1.1h1.4z"/><path class="st5" d="M160.1 14.5c0 .9-.7 1.6-1.5 1.6s-1.6-.7-1.6-1.5c0-.9.7-1.6 1.5-1.6.9 0 1.6.7 1.6 1.5z"/><path class="st4" d="M240.1 10.9c.4 0 .7.3.7.7v4.3c0 .4-.3.7-.7.7-.4 0-.7-.3-.7-.7v-4.3c0-.4.3-.7.7-.7z"/><path class="st4" d="M237.2 13.7c0-.4.3-.7.7-.7h4.3c.4 0 .7.3.7.7 0 .4-.3.7-.7.7h-4.3c-.3 0-.7-.3-.7-.7z"/><path class="st3" d="M154.7 250.9c1.5 0 2.8 1.2 2.8 2.8 0 1.5-1.2 2.8-2.8 2.8-1.5 0-2.8-1.2-2.8-2.8 0-1.5 1.3-2.8 2.8-2.8zm62.9 0c1.5 0 2.8 1.2 2.8 2.8 0 1.5-1.2 2.8-2.8 2.8-1.5 0-2.8-1.2-2.8-2.8 0-1.5 1.3-2.8 2.8-2.8z"/><path class="st4" d="M175.2 150.7h20.5c1.9 0 3.4 1.5 3.4 3.4v3.2c0 1.9-1.5 3.4-3.4 3.4h-20.5c-1.9 0-3.4-1.5-3.4-3.4v-3.2c-.1-1.8 1.5-3.4 3.4-3.4zm20.8 18.6h26.1c1 0 1.9.8 1.9 1.9v3.2c0 1-.8 1.9-1.9 1.9H196c-1 0-1.9-.8-1.9-1.9v-3.2c0-1.1.8-1.9 1.9-1.9z"/><path class="st2" d="M150 169.3h40c1 0 1.9.8 1.9 1.9v3.2c0 1-.8 1.9-1.9 1.9h-40c-1 0-1.9-.8-1.9-1.9v-3.2c.1-1.1.9-1.9 1.9-1.9z"/><path class="st6" d="M151.9 181.5h68.7c.5 0 1 .4 1 1v2.3c0 .5-.4 1-1 1h-68.7c-.5 0-1-.4-1-1v-2.3c0-.6.5-1 1-1z"/><path class="st4" d="M167.1 213.4h37.2c.6 0 1.1.5 1.1 1.1v3.2c0 .6-.5 1.1-1.1 1.1h-37.2c-.6 0-1.1-.5-1.1-1.1v-3.2c0-.6.5-1.1 1.1-1.1zm-32.5 13h33.1c.7 0 1.2.6 1.2 1.2v3.2c0 .7-.6 1.2-1.2 1.2h-33.1c-.7 0-1.2-.6-1.2-1.2v-3.2c0-.7.6-1.2 1.2-1.2z"/><path class="st6" d="M134.4 234.5H193c.5 0 1 .4 1 1v2.4c0 .5-.4 1-1 1h-58.6c-.5 0-1-.4-1-1v-2.4c0-.5.4-1 1-1z"/><path class="st3" d="M149.6 259.7h10.9c.4 0 .8.4.8.8v1.8c0 .4-.4.8-.8.8h-10.9c-.4 0-.8-.4-.8-.8v-1.8c0-.4.4-.8.8-.8zm59.6 0H227c.4 0 .8.4.8.8v1.8c0 .4-.4.8-.8.8h-17.8c-.4 0-.8-.4-.8-.8v-1.8c0-.4.3-.8.8-.8z"/><path class="st4" d="M129.5 13h6.6v1.4h-6.6zm0-2.3h6.6v1.4h-6.6zm0 4.6h6.6v1.4h-6.6z"/><path d="M8.1 24.7H364c4.5 0 8.1 3.6 8.1 8.1V120c0 4.5-3.6 8.1-8.1 8.1H8.1c-4.5 0-8.1-3.6-8.1-8.1V32.8c0-4.5 3.6-8.1 8.1-8.1z" fill="#eaedef"/><path d="M21.4 37.3H36c4.9 0 8.8 4 8.8 8.8v14.5c0 4.9-4 8.8-8.8 8.8H21.4c-4.9 0-8.8-4-8.8-8.8V46.1c0-4.9 4-8.8 8.8-8.8zm-.1 63.5c0-.5-.2-.9-.6-1.2-.6-.4-1.3-.7-2-.9-.8-.2-1.6-.6-2.3-.9-1.4-.7-2.4-2-2.4-3.5 0-.7.2-1.4.6-2 .5-.6 1.1-1.1 1.8-1.4.8-.3 1.7-.5 2.6-.5.9 0 1.8.2 2.6.5.7.3 1.3.8 1.8 1.5.4.6.6 1.4.6 2.2h-2.8c0-.6-.2-1.1-.6-1.5-.5-.4-1.1-.6-1.7-.5-.6 0-1.1.1-1.6.4-.4.3-.6.7-.6 1.2s.3.9.7 1.1c.6.4 1.3.7 2 .8 1.3.3 2.5.9 3.5 1.8.7.7 1.1 1.7 1.1 2.7 0 1.1-.5 2.1-1.3 2.8-1.1.7-2.3 1.1-3.6 1-1 0-2-.2-2.9-.6-.8-.3-1.5-.9-2-1.6-.5-.7-.7-1.5-.7-2.3h2.8c0 1.5.9 2.3 2.7 2.3.6 0 1.1-.1 1.6-.4.4-.2.7-.6.7-1zm11.8 0c0-.5-.2-.9-.6-1.2-.6-.4-1.3-.7-2-.9-.8-.2-1.6-.6-2.3-.9-1.4-.6-2.3-1.9-2.3-3.4 0-.7.2-1.4.6-2 .5-.6 1.1-1.1 1.8-1.4.8-.3 1.7-.5 2.6-.5.9 0 1.8.2 2.6.5.7.3 1.3.8 1.8 1.5.4.6.6 1.4.6 2.2h-2.8c0-.6-.2-1.1-.6-1.5-.5-.4-1.1-.6-1.7-.5-.6 0-1.1.1-1.6.4-.4.3-.6.7-.6 1.2s.3.9.7 1.1c.6.4 1.3.7 2 .8 1.3.3 2.5.9 3.5 1.8.7.7 1.1 1.7 1.1 2.7 0 1.1-.5 2.1-1.3 2.8-1.1.7-2.3 1.1-3.6 1-1 0-2-.2-2.9-.6-.8-.3-1.5-.8-2-1.5s-.7-1.5-.7-2.3h2.9c0 1.5.9 2.3 2.7 2.3.6 0 1.1-.1 1.6-.4.3-.3.5-.8.5-1.2zm7.6 1.4h6v2.2h-8.8V90.6h2.8v11.6zm23.1-2.4c0 1.3-.6 2.6-1.6 3.5-1.1.9-2.5 1.3-3.9 1.3-1.6.1-3.1-.6-4.1-1.8-1.1-1.4-1.6-3.1-1.5-4.9v-.8c0-1.2.2-2.4.7-3.5.4-.9 1.1-1.8 2-2.3.9-.5 2-.8 3-.8 1.4-.1 2.7.4 3.8 1.3 1 .9 1.6 2.2 1.7 3.6H61c0-.7-.3-1.4-.7-1.9-.5-.4-1.2-.7-1.9-.6-.8-.1-1.6.3-2.1 1-.5 1-.8 2-.7 3.1v1c-.1 1.1.2 2.3.7 3.3.5.7 1.3 1.1 2.1 1 .7.1 1.4-.2 2-.6.5-.5.7-1.2.7-1.8l2.7-.1zm6.4 4.8c-1.3.1-2.7-.4-3.6-1.3-1-1-1.5-2.3-1.4-3.7v-.3c0-.9.2-1.9.6-2.7.3-.8.9-1.5 1.7-1.9.8-.4 1.6-.7 2.5-.7 1.2-.1 2.4.4 3.3 1.3.9 1 1.3 2.4 1.2 3.7v1.1H68c.1.6.3 1.2.8 1.6.5.4 1.1.6 1.7.6.9.1 1.9-.3 2.5-1.1l1.3 1.5c-.4.6-1 1.1-1.7 1.3-.9.4-1.6.6-2.4.6zm-.3-8.4c-.5 0-1 .2-1.3.5-.4.4-.6 1-.7 1.6h3.8v-.2c0-.5-.2-1-.5-1.4-.3-.4-.8-.5-1.3-.5zm11.8.5c-.3 0-.7-.1-1-.1-.8-.1-1.7.3-2 1.1v6.6H76V94.1h2.6l.1 1.2c.4-.9 1.3-1.4 2.3-1.4.3 0 .6 0 .8.1l-.1 2.7zm5-5v2.5h1.7v2h-1.7v5.1c0 .3 0 .6.2.8.2.2.5.3.8.3.3 0 .5 0 .8-.1v2.1c-.5.2-1.1.2-1.6.3-1.4.2-2.7-.8-2.9-2.2v-6.1h-1.5v-2H84v-2.5l2.7-.2zm3.2-.1c0-.4.1-.7.4-1 .3-.3.7-.4 1.1-.4.4 0 .8.1 1.1.4.6.6.6 1.5 0 2s-1.5.5-2.2 0c-.2-.3-.4-.7-.4-1zm2.9 12.7h-2.7V94.1h2.7v10.2zm3 0v-8.2h-1.5v-2h1.5v-.9c-.1-1 .3-2 1-2.7.8-.7 1.8-1 2.8-.9.5 0 .9.1 1.4.2V92c-.3-.1-.5-.1-.8-.1-1 0-1.5.5-1.5 1.4v.8h2v2h-2v8.2h-2.9zm6.2-12.7c0-.4.1-.7.4-1 .3-.3.7-.4 1.1-.4.4 0 .8.1 1.1.4.3.3.4.6.4 1s-.1.8-.4 1c-.3.3-.7.4-1.1.4-.4 0-.8-.1-1.1-.4-.3-.3-.5-.7-.4-1zm2.8 12.7h-2.7V94.1h2.7v10.2zm6.5-1.9c.4 0 .9-.1 1.2-.4.3-.3.5-.7.5-1.1h2.6c0 .7-.2 1.3-.6 1.9-.4.6-.9 1-1.5 1.3-.7.3-1.4.5-2.2.5-1.3.1-2.6-.4-3.4-1.4-.9-1.1-1.3-2.4-1.3-3.8v-.2c-.1-1.4.4-2.7 1.3-3.8 1.8-1.8 4.6-1.9 6.5-.3.8.8 1.2 1.8 1.2 2.9h-2.5c0-.5-.2-.9-.5-1.3-.3-.3-.8-.5-1.2-.5-.6 0-1.1.2-1.4.7-.4.7-.6 1.5-.5 2.2v.3c-.1.8.1 1.6.5 2.3.2.5.8.7 1.3.7zm11.7 1.9l-.3-.9c-.6.7-1.6 1.1-2.6 1.1-.9 0-1.8-.3-2.5-.9-.6-.5-1-1.3-1-2.2 0-1 .4-1.9 1.2-2.5 1-.6 2.3-.9 3.5-.9h1.3v-.6c0-.4-.1-.8-.4-1.1-.3-.3-.7-.5-1.2-.4-.4 0-.8.1-1.1.3-.3.2-.4.6-.4.9h-2.7c0-.6.2-1.2.5-1.6.4-.5.9-.9 1.5-1.2.7-.3 1.5-.4 2.2-.4 1.1-.1 2.1.3 3 .9.8.7 1.2 1.7 1.1 2.7v4.4c0 .7.1 1.5.4 2.2v.1H123zm-2.2-1.9c.4 0 .8-.1 1.1-.3.3-.2.6-.4.8-.7v-1.8h-1c-1.4 0-2.1.5-2.2 1.4v.2c0 .3.1.6.4.8.2.4.5.5.9.4zm9.9-10.7v2.5h1.7v2h-1.7v5.1c0 .3 0 .6.2.8.2.2.5.3.8.3.3 0 .5 0 .8-.1v2.1c-.5.2-1.1.2-1.6.3-1.4.2-2.7-.8-2.9-2.2v-6.2h-1.5v-2h1.5v-2.5l2.7-.1zm8 12.9c-1.3.1-2.7-.4-3.6-1.3-1-1-1.5-2.3-1.4-3.7v-.3c0-.9.2-1.9.6-2.7.4-.8.9-1.5 1.7-1.9.7-.4 1.6-.7 2.5-.7 1.2-.1 2.4.4 3.3 1.3.9 1 1.3 2.4 1.2 3.7v1.1h-6.5c.1.6.3 1.2.8 1.6.5.4 1.1.6 1.7.6.9.1 1.9-.3 2.5-1.1l1.3 1.5c-.4.6-1 1.1-1.7 1.3-.9.4-1.7.6-2.4.6zm-.3-8.4c-.5 0-1 .2-1.3.5-.4.4-.6 1-.6 1.6h3.8v-.2c0-.5-.2-1-.5-1.4-.4-.4-.9-.6-1.4-.5zm10.8-4.6c0-.4.1-.7.4-1 .3-.3.7-.4 1.1-.4.4 0 .8.1 1.1.4.3.3.4.6.4 1s-.1.8-.4 1c-.3.3-.7.4-1.1.4-.4 0-.8-.1-1.1-.4-.3-.3-.4-.7-.4-1zm2.9 12.7h-2.7V94.1h2.7v10.2zm7.7-2.7c0-.3-.2-.6-.5-.8-.5-.2-1-.4-1.6-.5-2.4-.5-3.6-1.5-3.6-3.1 0-.9.4-1.7 1.1-2.3.8-.6 1.9-1 2.9-.9 1.1-.1 2.2.3 3.1.9.8.6 1.2 1.4 1.2 2.4h-2.7c0-.4-.1-.7-.4-1-.3-.3-.7-.4-1.2-.4-.4 0-.8.1-1.1.3-.2.2-.4.5-.4.8 0 .3.2.6.4.7.5.2.9.4 1.4.5.6.1 1.2.3 1.7.5 1.3.3 2.2 1.4 2.2 2.7 0 .9-.4 1.8-1.2 2.3-.9.6-2 .9-3.1.9-.8 0-1.6-.1-2.3-.5-.6-.3-1.2-.7-1.6-1.3-.4-.5-.6-1.1-.6-1.7h2.6c0 .4.2.8.5 1.1.4.3.9.4 1.3.4s.8-.1 1.2-.3c.5-.2.7-.4.7-.7zm13.9 3c-1.4.1-2.7-.4-3.7-1.4-1-1-1.5-2.3-1.4-3.7v-.3c0-.9.2-1.9.6-2.7.4-.8 1-1.4 1.7-1.9.8-.4 1.6-.7 2.5-.7 1.2-.1 2.4.4 3.3 1.3.9 1.1 1.3 2.4 1.2 3.7v1.1h-6.5c.1.6.3 1.2.8 1.6.5.4 1.1.6 1.7.6.9.1 1.9-.3 2.5-1.1l1.3 1.5c-.4.6-1 1.1-1.7 1.3-.7.5-1.5.7-2.3.7zm-.3-8.4c-.5 0-1 .2-1.3.5-.4.4-.6 1-.6 1.6h3.8v-.2c0-.5-.2-1-.5-1.4-.4-.4-.9-.5-1.4-.5zm9.9 1l1.7-3h2.9l-2.9 5 3 5.2h-2.9l-1.8-3.2-1.8 3.2h-2.9l3-5.2-2.9-5h2.9l1.7 3zm15.1 2.2c.1 1.3-.3 2.7-1.1 3.8-.7.9-1.7 1.5-2.9 1.4-1 0-1.9-.4-2.5-1.1v4.8h-2.7V94.1h2.5l.1 1c.6-.8 1.6-1.2 2.6-1.2 1.1 0 2.2.5 2.9 1.4.8 1.1 1.2 2.5 1.1 3.8v.3zm-2.7-.2c0-.8-.1-1.5-.5-2.2-.3-.5-.9-.8-1.5-.8-.7-.1-1.4.3-1.8 1v4.2c.3.7 1 1.1 1.8 1 1.3 0 2-1.1 2-3.2zm4.3-7.6c0-.4.1-.7.4-1 .3-.3.7-.4 1.1-.4.4 0 .8.1 1.1.4.3.3.4.6.4 1s-.1.8-.4 1c-.3.3-.7.4-1.1.4-.4 0-.8-.1-1.1-.4-.2-.3-.4-.7-.4-1zm3 12.7h-2.7V94.1h2.7v10.2zm7.9-7.6c-.3 0-.7-.1-1-.1-.8-.1-1.7.3-2 1.1v6.6h-2.7V94.1h2.6l.1 1.2c.4-.9 1.3-1.4 2.3-1.4.3 0 .6 0 .8.1l-.1 2.7zm1.3-5.1c0-.4.1-.7.4-1 .3-.3.7-.4 1.1-.4.4 0 .8.1 1.1.4.3.3.4.6.4 1s-.1.8-.4 1c-.6.5-1.5.5-2.2 0-.2-.3-.4-.7-.4-1zm2.9 12.7h-2.7V94.1h2.7v10.2zm4.8-10.1l.1 1.2c.7-.9 1.8-1.4 2.9-1.4.9-.1 1.8.3 2.4 1 .6.8.9 1.8.8 2.8v6.5h-2.7v-6.5c0-.4-.1-.9-.4-1.3-.3-.3-.8-.4-1.3-.4-.7 0-1.4.3-1.7 1v7.2h-2.7V94.1l2.6.1zm7.9 5c-.1-1.3.3-2.7 1.1-3.8.7-.9 1.8-1.5 3-1.4 1-.1 2 .4 2.6 1.2l.1-1h2.5v9.8c0 .8-.2 1.6-.6 2.3-.4.7-1 1.2-1.7 1.5-.8.4-1.7.5-2.6.5-.7 0-1.5-.2-2.2-.4-.6-.2-1.2-.6-1.6-1.2l1.2-1.7c.6.7 1.5 1.1 2.5 1.1.6 0 1.2-.2 1.7-.6.4-.4.6-1 .6-1.6v-.5c-.6.7-1.5 1.1-2.5 1.1-1.2 0-2.3-.5-3-1.4-.8-1.1-1.2-2.4-1.1-3.9zm2.7.2c0 .8.1 1.5.6 2.2.3.5.9.8 1.5.8.7.1 1.4-.3 1.8-.9v-4.3c-.4-.6-1-1-1.8-.9-.6 0-1.2.3-1.5.8-.5.6-.7 1.5-.6 2.3zm13.4-7.8c0-.4.1-.7.4-1 .6-.5 1.5-.5 2.2 0 .6.6.6 1.5 0 2s-1.5.5-2.2 0c-.2-.3-.4-.7-.4-1zm2.9 12.7h-2.7V94.1h2.7v10.2zm4.8-10.1l.1 1.2c.7-.9 1.8-1.4 2.9-1.4.9-.1 1.8.3 2.4 1 .6.8.9 1.8.8 2.8v6.5h-2.7v-6.5c0-.5-.1-.9-.4-1.3-.3-.3-.8-.4-1.3-.4-.7 0-1.4.4-1.7 1v7.2H249V94.1l2.6.1zm19.6 10.1h-2.7V93.9l-3.3 1v-2.2l5.7-2h.3v13.6zm12.4-5.1h1.6v2.2h-1.6v2.9h-2.7v-3h-5.6l-.1-1.7 5.7-9h2.7v8.6zm-5.7 0h3v-4.8l-.2.3-2.8 4.5zm13.3 0c-.1-1.4.3-2.7 1.1-3.8.7-.9 1.8-1.5 2.9-1.4.9 0 1.8.4 2.5 1.1v-5.2h2.7v14.4h-2.5l-.1-1.1c-.6.8-1.6 1.3-2.6 1.3-1.1 0-2.2-.5-2.9-1.4-.8-1.2-1.2-2.5-1.1-3.9zm2.7.2c0 .8.1 1.5.5 2.2.3.5.9.8 1.5.8.8 0 1.5-.4 1.8-1.1v-4c-.3-.7-1-1.1-1.8-1.1-1.4 0-2 1.1-2 3.2zm14.4 4.9l-.3-.9c-.6.7-1.6 1.1-2.6 1.1-.9 0-1.8-.3-2.5-.9-.6-.5-1-1.3-1-2.2 0-1 .4-1.9 1.2-2.5 1-.6 2.3-.9 3.5-.9h1.3v-.6c0-.4-.1-.8-.4-1.1-.3-.3-.7-.5-1.1-.4-.4 0-.8.1-1.1.3-.3.2-.4.6-.4.9h-2.7c0-.6.2-1.2.5-1.6.4-.5 1-.9 1.6-1.2.7-.3 1.5-.4 2.2-.4 1.1-.1 2.1.3 3 .9.8.7 1.2 1.7 1.1 2.7v4.4c0 .7.1 1.5.4 2.2v.1h-2.7zm-2.2-1.9c.4 0 .7-.1 1.1-.3.3-.2.6-.4.8-.7v-1.8h-1c-1.4 0-2.1.5-2.2 1.4v.2c0 .3.1.6.4.8.2.4.5.5.9.4zm10.3-1.9l1.9-6.3h2.9l-4.1 11.8-.2.5c-.5 1.2-1.7 2-3 2-.4 0-.8-.1-1.2-.2v-2.1h.4c.4 0 .8-.1 1.2-.2.3-.2.5-.5.6-.8l.3-.8-3.6-10.2h2.9l1.9 6.3zm11.4 1.1c0-.3-.2-.6-.5-.8-.5-.2-1-.4-1.6-.5-2.4-.5-3.6-1.5-3.6-3.1 0-.9.4-1.7 1.1-2.3.8-.6 1.9-1 2.9-.9 1.1-.1 2.2.3 3.1.9.7.6 1.2 1.4 1.2 2.4h-2.7c0-.4-.1-.7-.4-1-.3-.3-.7-.4-1.2-.4-.4 0-.8.1-1.1.3-.2.2-.4.5-.4.8 0 .3.2.6.4.7.4.2.9.4 1.4.5.6.1 1.2.3 1.7.5 1.3.3 2.2 1.4 2.2 2.7 0 .9-.4 1.8-1.2 2.3-.9.6-2 .9-3.1.9-.8 0-1.6-.1-2.3-.5-.6-.3-1.2-.7-1.6-1.3-.4-.5-.6-1.1-.6-1.7h2.6c0 .4.2.8.5 1.1.4.3.9.4 1.3.4s.8-.1 1.2-.3c.5-.2.7-.4.7-.7zm6.1.1c.4 0 .8.1 1.1.4.3.3.5.7.4 1.1 0 .4-.1.8-.4 1-.6.5-1.5.5-2.2 0-.5-.6-.5-1.5 0-2.1.3-.3.6-.4 1.1-.4zm1-1.5h-2.3l-.3-9.5h2.9l-.3 9.5z" fill="#161f2d"/><path class="st9" d="M330.2 60.6h-1.7l-6.3-9.7v9.7h-1.7V48.1h1.7l6.3 9.7v-9.7h1.7v12.5zm12.6-5.9c0 1.1-.2 2.2-.6 3.3-.4.9-1 1.6-1.8 2.1s-1.7.8-2.7.7c-1.9.1-3.7-1.1-4.4-2.8-.4-1-.7-2-.7-3.1V54c0-1.1.2-2.2.6-3.3.4-.9 1-1.6 1.8-2.1s1.7-.8 2.6-.7c.9 0 1.9.2 2.7.7.8.5 1.4 1.2 1.8 2.1.4 1 .6 2.1.6 3.3l.1.7zm-1.6-.8c.1-1.2-.2-2.4-.9-3.4-.6-.8-1.5-1.2-2.5-1.2s-1.9.4-2.5 1.2c-.7 1-1 2.1-.9 3.3v.9c-.1 1.2.3 2.4.9 3.4.6.8 1.5 1.3 2.5 1.2 1 .1 1.9-.4 2.5-1.2.6-1 1-2.2.9-3.3v-.9zm6.8 2.8l.2 1.7.4-1.5 2.5-8.8h1.4l2.4 8.8.3 1.5.3-1.7 1.9-8.6h1.7L356 60.7h-1.5l-2.6-9.2-.2-1-.2 1-2.7 9.2h-1.5l-3-12.6h1.7l2 8.6z"/><path class="st5" d="M37 53.4c0 4.5-3.7 8.2-8.2 8.2-4.5 0-8.2-3.7-8.2-8.2 0-4.5 3.7-8.2 8.2-8.2 4.5 0 8.2 3.7 8.2 8.2z"/><path d="M40.8 53.4c0 6.7-5.4 12.1-12.1 12.1-6.7 0-12.1-5.4-12.1-12.1 0-6.7 5.4-12.1 12.1-12.1 6.7 0 12.1 5.4 12.1 12.1z" opacity=".5" fill="#3bd771"/><path class="st9" d="M190 58.8c0 2.2-1.3 3.8-2.8 3.8h-133c-1.6 0-2.8-1.7-2.8-3.8V48c0-2.2 1.3-3.8 2.8-3.8H187c1.6 0 2.8 1.7 2.8 3.8v10.9h.2z"/></svg>