<svg xmlns="http://www.w3.org/2000/svg" width="106.7" height="84"><path fill="#EBFBF1" d="M0 0h84v84H0z"/><circle fill="#3BD671" cx="85.9" cy="36.7" r="20.6"/><path fill="#131A26" d="M93.485 10.842l-.636-5.085C82.044 12.93 69.242 11.75 60.796 3.85c-7.991 7.81-21.065 8.99-31.871 1.908l-.727 5.085c-.636 4.085-5.448 39.86 4.994 51.938 9.534 11.076 25.243 16.616 26.967 16.979l.636.091.636-.091c1.815-.362 17.525-5.993 27.059-16.979 10.443-12.079 5.54-47.853 4.995-51.939zm-9.808 47.851c-7.445 8.626-19.702 13.71-22.881 14.709-3.269-1.088-15.436-6.083-22.881-14.709-6.538-7.536-5.449-30.872-3.996-43.04 2.362.636 5.902 1.09 10.714 1 8.354-.273 13.53-2.634 16.252-4.359 2.726 1.726 7.9 4.086 16.254 4.359 4.813.181 8.354-.363 10.715-1 1.272 12.259 2.362 35.504-4.177 43.04z"/></svg>