<svg xmlns="http://www.w3.org/2000/svg" width="117.2" height="84"><path fill="#EBFBF1" d="M0 0h84v84H0z"/><circle fill="#3BD671" cx="96.7" cy="30.3" r="20.5"/><g fill="#131A26"><path d="M94.7 73.3h-4.6c-1.4 0-2.5-1.1-2.5-2.5s1.1-2.5 2.5-2.5h4.6c1 0 1.8-.8 1.8-1.8V14.6c0-1-.8-1.8-1.8-1.8H23.5c-1 0-1.8.8-1.8 1.8v51.9c0 1 .8 1.8 1.8 1.8h46.1c1.4 0 2.5 1.1 2.5 2.5s-1.1 2.5-2.5 2.5H23.5c-3.7 0-6.7-3-6.7-6.7v-52c0-3.7 3-6.7 6.7-6.7h71.2c3.7 0 6.7 3 6.7 6.7v51.9c0 3.8-3 6.8-6.7 6.8z"/><path d="M19.3 22.2h79.8v4.9H19.3zm64.8 49.9l1.3-.7c.4-.2.7-.7.7-1.2s-.3-.9-.8-1.1l-9.2-3.9c-.5-.2-1-.1-1.4.3-.4.3-.5.9-.3 1.3l3.5 9.3c.2.5.6.8 1.1.8h.1c.4 0 .9-.2 1.1-.6l.7-1.3 1.5 1.5c.2.2.6.4.9.4.3 0 .7-.1.9-.4l1.3-1.3c.5-.5.5-1.3 0-1.8l-1.4-1.3zM39.3 51.6h-2.9v-5.1H32v5.1h-3V39.4h3v4.9h4.3v-4.9h2.9v12.2zm11.4-9.9H47v10h-3v-10h-3.6v-2.3h10.2v2.3zm11.1 0h-3.7v10h-2.9v-10h-3.6v-2.3h10.2v2.3zm4.4 5.8v4.2h-2.9V39.4h4.9c.9 0 1.8.2 2.5.5s1.3.8 1.7 1.5c.4.6.6 1.4.6 2.2 0 1.2-.4 2.1-1.3 2.9-.9.7-2 1.1-3.5 1.1h-2zm0-2.3h1.9c.6 0 1-.1 1.3-.4.3-.3.4-.7.4-1.2 0-.6-.2-1-.5-1.4-.3-.3-.7-.5-1.3-.5h-2v3.5zm10-3c.4 0 .8.1 1.1.4.3.3.4.6.4 1s-.1.8-.4 1c-.3.3-.7.4-1.1.4-.5 0-.8-.1-1.1-.4-.3-.3-.4-.6-.4-1s.1-.7.4-1c.3-.3.7-.4 1.1-.4zm0 6.7c.4 0 .8.1 1.1.4.3.3.4.6.4 1s-.1.8-.4 1c-.3.3-.7.4-1.1.4-.5 0-.8-.1-1.1-.4-.3-.3-.4-.6-.4-1s.1-.7.4-1c.3-.3.7-.4 1.1-.4zm5.4 3.8h-2.8l5.8-13.3h2.8l-5.8 13.3zm5.7 0h-2.8l5.8-13.3H93l-5.7 13.3z"/><circle cx="27.5" cy="17.2" r="3"/><circle cx="36" cy="17.2" r="3"/><circle cx="44.4" cy="17.2" r="3"/></g></svg>