<svg id="Layer_1" data-name="Layer 1" xmlns="http://www.w3.org/2000/svg" viewBox="0 0 592.24 317.51"><defs><style>.cls-1{fill:#eaedef}.cls-2{fill:#738199}</style></defs><rect class="cls-1" width="197.42" height="27.18" rx="10.44"/><rect class="cls-2" x="208.96" width="104.11" height="27.18" rx="10.44"/><rect class="cls-2" x="530.45" width="61.79" height="27.18" rx="10.44"/><rect class="cls-2" x="324.62" width="194.29" height="27.18" rx="10.44"/><rect class="cls-2" y="45.69" width="162.26" height="27.18" rx="10.44"/><rect class="cls-1" y="91.39" width="219.95" height="27.18" rx="10.44"/><rect class="cls-2" y="240.99" width="81.13" height="27.18" rx="10.44"/><rect class="cls-2" x="92.67" y="240.99" width="179.03" height="27.18" rx="10.44"/><rect class="cls-2" x="231.5" y="91.39" width="219.95" height="27.18" rx="10.44"/><rect class="cls-1" x="173.8" y="45.69" width="85.57" height="27.18" rx="10.44"/><rect class="cls-2" y="290.33" width="162.26" height="27.18" rx="10.44"/><rect class="cls-1" x="173.8" y="290.33" width="257.56" height="27.18" rx="10.44"/><rect class="cls-1" y="166.19" width="191.15" height="27.18" rx="10.44"/><rect class="cls-1" x="202.7" y="166.19" width="100.81" height="27.18" rx="10.44"/><rect class="cls-1" x="283.24" y="240.99" width="100.81" height="27.18" rx="10.44"/></svg>